<svg width="32" height="40" viewBox="0 0 32 40" fill="none" xmlns="http://www.w3.org/2000/svg">
<path fill-rule="evenodd" clip-rule="evenodd" d="M19.3263 13.7563C18.9618 13.4146 18.3708 13.4146 18.0063 13.7563L18.5842 14.2981C18.0063 13.7563 18.0064 13.7562 18.0063 13.7563L17.9451 13.8139L17.7742 13.9751C17.6273 14.1141 17.4177 14.3131 17.1662 14.5537C16.6637 15.0347 15.9924 15.6837 15.32 16.3534C14.6498 17.021 13.9692 17.7185 13.4524 18.2938C13.1957 18.5796 12.966 18.85 12.7959 19.0792C12.7118 19.1925 12.629 19.3135 12.5635 19.4325C12.5186 19.514 12.3996 19.7335 12.3996 20C12.3996 20.2665 12.5186 20.486 12.5635 20.5675C12.629 20.6865 12.7118 20.8075 12.7959 20.9208C12.966 21.15 13.1957 21.4204 13.4524 21.7062C13.9692 22.2815 14.6498 22.979 15.32 23.6466C15.9924 24.3163 16.6637 24.9653 17.1662 25.4463C17.4177 25.6869 17.6273 25.8859 17.7742 26.0249L17.9451 26.1861L18.0052 26.2427L18.0062 26.2436C18.0063 26.2437 18.0063 26.2437 18.6663 25.625C19.3263 25.0063 19.3263 25.0063 19.3262 25.0063L19.2677 24.9513L19.1 24.793C18.9553 24.6561 18.7482 24.4595 18.4997 24.2217C18.0022 23.7456 17.3402 23.1055 16.6793 22.4472C16.0161 21.7866 15.3634 21.1169 14.8802 20.579C14.6738 20.3492 14.5079 20.154 14.3881 20C14.5079 19.846 14.6738 19.6508 14.8802 19.421C15.3634 18.8831 16.0161 18.2134 16.6793 17.5528C17.3402 16.8945 18.0022 16.2544 18.4997 15.7783C18.7482 15.5405 18.9553 15.3439 19.1 15.207L19.2677 15.0487L19.3254 14.9945C19.3255 14.9945 19.3263 14.9937 18.9662 14.6562L19.3254 14.9945C19.6899 14.6528 19.6907 14.098 19.3263 13.7563ZM14.2222 20.2351C14.2126 20.2577 14.2092 20.2588 14.2222 20.2351C14.2224 20.2348 14.2221 20.2355 14.2222 20.2351ZM19.3263 26.2437C19.6907 25.902 19.6907 25.348 19.3262 25.0063L18.6663 25.625L18.0062 26.2436C18.3707 26.5853 18.9618 26.5854 19.3263 26.2437Z" fill="#202020"/>
<path fill-rule="evenodd" clip-rule="evenodd" d="M13.333 19.125C12.8175 19.125 12.3996 19.5168 12.3996 20C12.3996 20.2665 12.5186 20.486 12.5635 20.5675C12.629 20.6865 12.7118 20.8075 12.7959 20.9208C12.966 21.15 13.1957 21.4204 13.4524 21.7062C13.9692 22.2815 14.6498 22.979 15.32 23.6466C15.9924 24.3163 16.6637 24.9653 17.1662 25.4463C17.4177 25.6869 17.6273 25.8859 17.7742 26.0249L17.9451 26.1861L18.0062 26.2436C18.0063 26.2437 18.0063 26.2437 18.6663 25.625C19.3263 25.0063 19.3263 25.0063 19.3262 25.0063L19.2677 24.9513L19.1 24.793C18.9553 24.6561 18.7482 24.4595 18.4997 24.2217C18.0022 23.7456 17.3402 23.1055 16.6793 22.4472C16.0161 21.7866 15.3634 21.1169 14.8802 20.579C14.6369 20.3081 14.4499 20.0853 14.3283 19.9215C14.2864 19.8651 14.2584 19.8237 14.2407 19.7957C14.1426 19.411 13.7734 19.125 13.333 19.125ZM19.3263 26.2437C19.6907 25.902 19.6907 25.348 19.3262 25.0063L18.6663 25.625L18.0062 26.2436C18.3707 26.5853 18.9618 26.5854 19.3263 26.2437Z" fill="#202020"/>
</svg>
