<svg width="19" height="18" viewBox="0 0 19 18" fill="none" xmlns="http://www.w3.org/2000/svg">
<path d="M7.10855 1.5L4.39355 4.2225" stroke="#9CA5B3" stroke-width="1.5" stroke-miterlimit="10" stroke-linecap="round" stroke-linejoin="round"/>
<path d="M11.8936 1.5L14.6086 4.2225" stroke="#9CA5B3" stroke-width="1.5" stroke-miterlimit="10" stroke-linecap="round" stroke-linejoin="round"/>
<path d="M2 5.88672C2 4.49922 2.7425 4.38672 3.665 4.38672H15.335C16.2575 4.38672 17 4.49922 17 5.88672C17 7.49922 16.2575 7.38672 15.335 7.38672H3.665C2.7425 7.38672 2 7.49922 2 5.88672Z" stroke="#9CA5B3" stroke-width="1.5"/>
<path d="M9.5 10.5V13.1625" stroke="#9CA5B3" stroke-width="1.5" stroke-linecap="round"/>
<path d="M10.7744 11.832L8.11191 11.832" stroke="#9CA5B3" stroke-width="1.5" stroke-linecap="round"/>
<path d="M3.125 7.5L4.1825 13.98C4.4225 15.435 5 16.5 7.145 16.5H11.6675C14 16.5 14.345 15.48 14.615 14.07L15.875 7.5" stroke="#9CA5B3" stroke-width="1.5" stroke-linecap="round"/>
</svg>
