<svg width="18" height="19" viewBox="0 0 18 19" fill="none" xmlns="http://www.w3.org/2000/svg">
<path d="M6.60709 2L3.89209 4.7225" stroke="#4790FF" stroke-width="1.5" stroke-miterlimit="10" stroke-linecap="round" stroke-linejoin="round"/>
<path d="M11.3921 2L14.1071 4.7225" stroke="#4790FF" stroke-width="1.5" stroke-miterlimit="10" stroke-linecap="round" stroke-linejoin="round"/>
<path d="M1.5 6.38672C1.5 4.99922 2.2425 4.88672 3.165 4.88672H14.835C15.7575 4.88672 16.5 4.99922 16.5 6.38672C16.5 7.99922 15.7575 7.88672 14.835 7.88672H3.165C2.2425 7.88672 1.5 7.99922 1.5 6.38672Z" stroke="#4790FF" stroke-width="1.5"/>
<path d="M9 11V13.6625" stroke="#4790FF" stroke-width="1.5" stroke-linecap="round"/>
<path d="M10.2744 12.332L7.61191 12.332" stroke="#4790FF" stroke-width="1.5" stroke-linecap="round"/>
<path d="M2.625 8L3.6825 14.48C3.9225 15.935 4.5 17 6.645 17H11.1675C13.5 17 13.845 15.98 14.115 14.57L15.375 8" stroke="#4790FF" stroke-width="1.5" stroke-linecap="round"/>
</svg>
