<svg width="20" height="20" viewBox="0 0 20 20" fill="none" xmlns="http://www.w3.org/2000/svg">
<rect width="20" height="20" rx="4" fill="#FFD600"/>
<path d="M11.1533 4.34001L12.3266 6.68668C12.4866 7.01334 12.9133 7.32668 13.2733 7.38668L15.3999 7.74001C16.7599 7.96668 17.0799 8.95334 16.0999 9.92668L14.4466 11.58C14.1666 11.86 14.0133 12.4 14.0999 12.7867L14.5733 14.8333C14.9466 16.4533 14.0866 17.08 12.6533 16.2333L10.6599 15.0533C10.2999 14.84 9.70661 14.84 9.33994 15.0533L7.34661 16.2333C5.91994 17.08 5.05327 16.4467 5.42661 14.8333L5.89994 12.7867C5.98661 12.4 5.83327 11.86 5.55327 11.58L3.89994 9.92668C2.92661 8.95334 3.23994 7.96668 4.59994 7.74001L6.72661 7.38668C7.07994 7.32668 7.50661 7.01334 7.66661 6.68668L8.83994 4.34001C9.47994 3.06668 10.5199 3.06668 11.1533 4.34001Z" fill="white"/>
</svg>
