<svg width="18" height="19" viewBox="0 0 18 19" fill="none" xmlns="http://www.w3.org/2000/svg">
<path d="M12.75 16.25H5.25C2.25 16.25 1.5 15.5 1.5 12.5V6.5C1.5 3.5 2.25 2.75 5.25 2.75H12.75C15.75 2.75 16.5 3.5 16.5 6.5V12.5C16.5 15.5 15.75 16.25 12.75 16.25Z" stroke="#575E6A" stroke-width="1.5" stroke-linecap="round" stroke-linejoin="round"/>
<path d="M10.5 6.5H14.25" stroke="#575E6A" stroke-width="1.5" stroke-linecap="round" stroke-linejoin="round"/>
<path d="M11.25 9.5H14.25" stroke="#575E6A" stroke-width="1.5" stroke-linecap="round" stroke-linejoin="round"/>
<path d="M12.75 12.5H14.25" stroke="#575E6A" stroke-width="1.5" stroke-linecap="round" stroke-linejoin="round"/>
<path d="M6.37508 8.96891C7.1248 8.96891 7.73258 8.36113 7.73258 7.61141C7.73258 6.86168 7.1248 6.25391 6.37508 6.25391C5.62535 6.25391 5.01758 6.86168 5.01758 7.61141C5.01758 8.36113 5.62535 8.96891 6.37508 8.96891Z" stroke="#575E6A" stroke-width="1.5" stroke-linecap="round" stroke-linejoin="round"/>
<path d="M9 12.7478C8.895 11.6603 8.0325 10.8053 6.945 10.7078C6.57 10.6703 6.1875 10.6703 5.805 10.7078C4.7175 10.8128 3.855 11.6603 3.75 12.7478" stroke="#575E6A" stroke-width="1.5" stroke-linecap="round" stroke-linejoin="round"/>
</svg>
