<svg width="16" height="17" viewBox="0 0 16 17" fill="none" xmlns="http://www.w3.org/2000/svg">
<path d="M13.9933 8.42608C13.9933 11.6062 11.604 14.5847 8.33988 15.4561C8.11778 15.5146 7.87548 15.5146 7.65338 15.4561C4.38923 14.5847 2 11.6062 2 8.42608V5.57114C2 5.03787 2.41728 4.43307 2.93551 4.23147L6.68423 2.74875C7.52551 2.41708 8.47447 2.41708 9.31575 2.74875L13.0645 4.23147C13.576 4.43307 14 5.03787 14 5.57114L13.9933 8.42608Z" stroke="#575E6A" stroke-width="1.5" stroke-linecap="round" stroke-linejoin="round"/>
<path d="M7.99984 9.16667C8.73622 9.16667 9.33317 8.56971 9.33317 7.83333C9.33317 7.09695 8.73622 6.5 7.99984 6.5C7.26346 6.5 6.6665 7.09695 6.6665 7.83333C6.6665 8.56971 7.26346 9.16667 7.99984 9.16667Z" stroke="#575E6A" stroke-width="1.5" stroke-miterlimit="10" stroke-linecap="round" stroke-linejoin="round"/>
<path d="M8 9.16797V11.168" stroke="#575E6A" stroke-width="1.5" stroke-miterlimit="10" stroke-linecap="round" stroke-linejoin="round"/>
</svg>
