<svg width="19" height="19" viewBox="0 0 19 19" fill="none" xmlns="http://www.w3.org/2000/svg">
<path d="M9.5 11.75C10.7426 11.75 11.75 10.7426 11.75 9.5C11.75 8.25736 10.7426 7.25 9.5 7.25C8.25736 7.25 7.25 8.25736 7.25 9.5C7.25 10.7426 8.25736 11.75 9.5 11.75Z" stroke="#575E6A" stroke-width="1.5" stroke-miterlimit="10" stroke-linecap="round" stroke-linejoin="round"/>
<path d="M2 10.1611V8.84105C2 8.06105 2.6375 7.41605 3.425 7.41605C4.7825 7.41605 5.3375 6.45605 4.655 5.27855C4.265 4.60355 4.4975 3.72605 5.18 3.33605L6.4775 2.59355C7.07 2.24105 7.835 2.45105 8.1875 3.04355L8.27 3.18605C8.945 4.36355 10.055 4.36355 10.7375 3.18605L10.82 3.04355C11.1725 2.45105 11.9375 2.24105 12.53 2.59355L13.8275 3.33605C14.51 3.72605 14.7425 4.60355 14.3525 5.27855C13.67 6.45605 14.225 7.41605 15.5825 7.41605C16.3625 7.41605 17.0075 8.05355 17.0075 8.84105V10.1611C17.0075 10.9411 16.37 11.5861 15.5825 11.5861C14.225 11.5861 13.67 12.5461 14.3525 13.7236C14.7425 14.4061 14.51 15.2761 13.8275 15.6661L12.53 16.4086C11.9375 16.7611 11.1725 16.5511 10.82 15.9586L10.7375 15.8161C10.0625 14.6386 8.9525 14.6386 8.27 15.8161L8.1875 15.9586C7.835 16.5511 7.07 16.7611 6.4775 16.4086L5.18 15.6661C4.4975 15.2761 4.265 14.3986 4.655 13.7236C5.3375 12.5461 4.7825 11.5861 3.425 11.5861C2.6375 11.5861 2 10.9411 2 10.1611Z" stroke="#575E6A" stroke-width="1.5" stroke-miterlimit="10" stroke-linecap="round" stroke-linejoin="round"/>
</svg>
