<svg width="16" height="16" viewBox="0 0 16 16" fill="none" xmlns="http://www.w3.org/2000/svg">
<path d="M9.99992 5.57994V4.93994C9.99992 2.95327 8.61992 2.19327 6.93992 3.24661L4.99325 4.46661C4.77992 4.59327 4.53325 4.66661 4.28659 4.66661H3.33325C1.99992 4.66661 1.33325 5.33327 1.33325 6.66661V9.33327C1.33325 10.6666 1.99992 11.3333 3.33325 11.3333H4.66659" stroke="#9CA5B3" stroke-linecap="round" stroke-linejoin="round"/>
<path d="M6.93994 12.7533C8.61994 13.8066 9.99994 13.04 9.99994 11.06V8.6333" stroke="#9CA5B3" stroke-linecap="round" stroke-linejoin="round"/>
<path d="M12.54 6.28003C13.14 7.71336 12.96 9.3867 12 10.6667" stroke="#9CA5B3" stroke-linecap="round" stroke-linejoin="round"/>
<path d="M14.1 5.19995C15.08 7.52662 14.7866 10.2466 13.22 12.3333" stroke="#9CA5B3" stroke-linecap="round" stroke-linejoin="round"/>
<path d="M14.6666 1.33337L1.33325 14.6667" stroke="#9CA5B3" stroke-linecap="round" stroke-linejoin="round"/>
</svg>
