<svg width="25" height="24" viewBox="0 0 25 24" fill="none" xmlns="http://www.w3.org/2000/svg">
<g clip-path="url(#clip0_798_7472)">
<path d="M11.6422 0.0301913C8.77717 0.243191 6.16417 1.42144 4.11217 3.42582C1.41367 6.05832 0.11954 9.78582 0.597665 13.5302C1.19504 18.2117 4.49654 22.1109 9.03141 23.4902C12.5377 24.5582 16.4399 23.9244 19.4125 21.8094C23.065 19.2069 24.9652 14.8907 24.4012 10.4721C23.8038 5.79057 20.5023 1.89132 15.9674 0.512066C14.6178 0.0991913 13.0439 -0.0755587 11.6422 0.0301913ZM12.5572 7.46644C13.171 7.52719 13.4782 7.62394 13.6162 7.80394C13.6692 7.88891 13.7119 7.97993 13.7433 8.07507C13.8153 8.28507 13.8183 8.52582 13.7733 10.3232C13.7455 11.4459 13.762 11.7917 13.8535 12.0407C13.9615 12.3257 14.1993 12.4554 14.4093 12.3482C14.6005 12.2488 15.0453 11.7594 15.3355 11.3252C16.0075 10.3296 16.4167 9.55819 16.909 8.36269C17.0084 8.12757 17.1415 7.97269 17.2795 7.93669C17.3347 7.92019 18.1173 7.90669 19.0795 7.90369L20.7802 7.89807L20.9238 7.95882C21.109 8.04132 21.181 8.15007 21.181 8.34582C21.181 8.71894 20.791 9.48507 20.122 10.4226C20.0309 10.5527 19.6852 11.0113 19.3559 11.4456C18.6284 12.4018 18.4709 12.6268 18.3603 12.8586C18.2215 13.1518 18.2553 13.3922 18.4735 13.6772C18.5373 13.7574 18.8579 14.0811 19.1868 14.3961C20.1078 15.2781 20.5255 15.7423 20.8653 16.2516C21.109 16.6191 21.2028 16.8902 21.1638 17.1227C21.1443 17.2502 21.0175 17.4021 20.8735 17.4767C20.7022 17.5629 20.4393 17.5791 18.9933 17.5982L17.6245 17.6177L17.3995 17.5427C16.8355 17.3552 16.4594 17.0421 15.6048 16.0521C15.1323 15.5046 14.7809 15.2364 14.5375 15.2334C14.3137 15.2334 14.0287 15.5319 13.9075 15.9028C13.825 16.1518 13.7943 16.3423 13.7688 16.7739C13.7388 17.2828 13.6777 17.4017 13.3649 17.5314C13.2517 17.5813 11.8413 17.5978 11.4674 17.5592C10.7182 17.4767 10.0237 17.2412 9.33554 16.8347C8.33729 16.2486 7.72604 15.7232 7.07054 14.8884C5.93129 13.4334 5.15804 12.1952 4.21117 10.3258C3.84629 9.59832 3.41767 8.65819 3.34867 8.43432C3.27967 8.20182 3.37866 8.01132 3.60592 7.93932C3.68317 7.91457 4.11479 7.90069 5.10966 7.88682L6.50617 7.87294L6.66929 7.93369C6.92654 8.03307 7.03417 8.16057 7.20854 8.58357C7.35779 8.93982 8.16254 10.5553 8.41417 11.0061C8.67142 11.4624 8.94516 11.8438 9.18029 12.0711C9.47054 12.3561 9.60029 12.4251 9.80542 12.4086C9.97979 12.3921 10.0304 12.3534 10.1347 12.1183C10.3972 11.5513 10.4384 9.63507 10.2037 8.88282C10.0687 8.45419 9.86617 8.29107 9.30742 8.17219C9.21067 8.14969 9.21067 8.11707 9.29917 7.98694C9.51479 7.67719 9.89917 7.52794 10.6319 7.46719C11.0332 7.43419 12.2219 7.43119 12.5512 7.46457L12.5572 7.46644Z" fill="#67AAFC"/>
</g>
<defs>
<clipPath id="clip0_798_7472">
<rect width="24" height="24" fill="white" transform="translate(0.5)"/>
</clipPath>
</defs>
</svg>
