<svg width="362" height="16" viewBox="0 0 362 16" fill="none" xmlns="http://www.w3.org/2000/svg">
<rect opacity="0.66" y="7" width="2" height="2" rx="1" fill="#9CA5B3"/>
<rect opacity="0.66" x="4" y="4" width="2" height="8" rx="1" fill="#9CA5B3"/>
<rect opacity="0.66" x="8" y="1" width="2" height="14" rx="1" fill="#9CA5B3"/>
<rect opacity="0.66" x="12" y="6" width="2" height="4" rx="1" fill="#9CA5B3"/>
<rect opacity="0.66" x="16" width="2" height="16" rx="1" fill="#9CA5B3"/>
<rect opacity="0.66" x="20" y="1" width="2" height="14" rx="1" fill="#9CA5B3"/>
<rect opacity="0.66" x="24" y="1" width="2" height="14" rx="1" fill="#9CA5B3"/>
<rect opacity="0.66" x="28" y="3" width="2" height="10" rx="1" fill="#9CA5B3"/>
<rect opacity="0.66" x="32" y="3" width="2" height="10" rx="1" fill="#9CA5B3"/>
<rect opacity="0.66" x="36" y="3" width="2" height="10" rx="1" fill="#9CA5B3"/>
<rect opacity="0.66" x="40" y="3" width="2" height="10" rx="1" fill="#9CA5B3"/>
<rect opacity="0.66" x="44" y="3" width="2" height="10" rx="1" fill="#9CA5B3"/>
<rect opacity="0.66" x="48" y="3" width="2" height="10" rx="1" fill="#9CA5B3"/>
<rect opacity="0.66" x="52" y="1" width="2" height="14" rx="1" fill="#9CA5B3"/>
<rect opacity="0.66" x="56" y="1" width="2" height="14" rx="1" fill="#9CA5B3"/>
<rect opacity="0.66" x="60" y="3" width="2" height="10" rx="1" fill="#9CA5B3"/>
<rect opacity="0.66" x="64" y="3" width="2" height="10" rx="1" fill="#9CA5B3"/>
<rect opacity="0.66" x="68" width="2" height="16" rx="1" fill="#9CA5B3"/>
<rect opacity="0.66" x="72" width="2" height="16" rx="1" fill="#9CA5B3"/>
<rect opacity="0.66" x="76" y="3" width="2" height="10" rx="1" fill="#9CA5B3"/>
<rect opacity="0.66" x="80" y="3" width="2" height="10" rx="1" fill="#9CA5B3"/>
<rect opacity="0.66" x="84" y="6" width="2" height="4" rx="1" fill="#9CA5B3"/>
<rect opacity="0.66" x="88" y="7" width="2" height="2" rx="1" fill="#9CA5B3"/>
<rect opacity="0.66" x="92" y="7" width="2" height="2" rx="1" fill="#9CA5B3"/>
<rect opacity="0.66" x="96" y="4" width="2" height="8" rx="1" fill="#9CA5B3"/>
<rect opacity="0.66" x="100" y="4" width="2" height="8" rx="1" fill="#9CA5B3"/>
<rect opacity="0.66" x="104" y="1" width="2" height="14" rx="1" fill="#9CA5B3"/>
<rect opacity="0.66" x="108" y="1" width="2" height="14" rx="1" fill="#9CA5B3"/>
<rect opacity="0.66" x="112" y="6" width="2" height="4" rx="1" fill="#9CA5B3"/>
<rect opacity="0.66" x="116" y="6" width="2" height="4" rx="1" fill="#9CA5B3"/>
<rect opacity="0.66" x="120" width="2" height="16" rx="1" fill="#9CA5B3"/>
<rect opacity="0.66" x="124" width="2" height="16" rx="1" fill="#9CA5B3"/>
<rect opacity="0.66" x="128" y="1" width="2" height="14" rx="1" fill="#9CA5B3"/>
<rect opacity="0.66" x="132" y="1" width="2" height="14" rx="1" fill="#9CA5B3"/>
<rect opacity="0.66" x="136" y="3" width="2" height="10" rx="1" fill="#9CA5B3"/>
<rect opacity="0.66" x="140" y="3" width="2" height="10" rx="1" fill="#9CA5B3"/>
<rect opacity="0.66" x="144" width="2" height="16" rx="1" fill="#9CA5B3"/>
<rect opacity="0.66" x="148" width="2" height="16" rx="1" fill="#9CA5B3"/>
<rect opacity="0.66" x="152" y="3" width="2" height="10" rx="1" fill="#9CA5B3"/>
<rect opacity="0.66" x="156" y="3" width="2" height="10" rx="1" fill="#9CA5B3"/>
<rect opacity="0.66" x="160" y="6" width="2" height="4" rx="1" fill="#9CA5B3"/>
<rect opacity="0.66" x="164" y="6" width="2" height="4" rx="1" fill="#9CA5B3"/>
<rect opacity="0.66" x="168" y="7" width="2" height="2" rx="1" fill="#9CA5B3"/>
<rect opacity="0.66" x="172" y="7" width="2" height="2" rx="1" fill="#9CA5B3"/>
<rect opacity="0.66" x="176" y="4" width="2" height="8" rx="1" fill="#9CA5B3"/>
<rect opacity="0.66" x="180" y="4" width="2" height="8" rx="1" fill="#9CA5B3"/>
<rect opacity="0.66" x="184" y="1" width="2" height="14" rx="1" fill="#9CA5B3"/>
<rect opacity="0.66" x="188" y="1" width="2" height="14" rx="1" fill="#9CA5B3"/>
<rect opacity="0.66" x="192" y="6" width="2" height="4" rx="1" fill="#9CA5B3"/>
<rect opacity="0.66" x="196" width="2" height="16" rx="1" fill="#9CA5B3"/>
<rect opacity="0.66" x="200" width="2" height="16" rx="1" fill="#9CA5B3"/>
<rect opacity="0.66" x="204" y="1" width="2" height="14" rx="1" fill="#9CA5B3"/>
<rect opacity="0.66" x="208" y="1" width="2" height="14" rx="1" fill="#9CA5B3"/>
<rect opacity="0.66" x="212" y="1" width="2" height="14" rx="1" fill="#9CA5B3"/>
<rect opacity="0.66" x="216" y="1" width="2" height="14" rx="1" fill="#9CA5B3"/>
<rect opacity="0.66" x="220" y="3" width="2" height="10" rx="1" fill="#9CA5B3"/>
<rect opacity="0.66" x="224" y="3" width="2" height="10" rx="1" fill="#9CA5B3"/>
<rect opacity="0.66" x="228" y="3" width="2" height="10" rx="1" fill="#9CA5B3"/>
<rect opacity="0.66" x="232" y="3" width="2" height="10" rx="1" fill="#9CA5B3"/>
<rect opacity="0.66" x="236" y="3" width="2" height="10" rx="1" fill="#9CA5B3"/>
<rect opacity="0.66" x="240" y="3" width="2" height="10" rx="1" fill="#9CA5B3"/>
<rect opacity="0.66" x="244" y="3" width="2" height="10" rx="1" fill="#9CA5B3"/>
<rect opacity="0.66" x="248" y="3" width="2" height="10" rx="1" fill="#9CA5B3"/>
<rect opacity="0.66" x="252" y="1" width="2" height="14" rx="1" fill="#9CA5B3"/>
<rect opacity="0.66" x="256" y="1" width="2" height="14" rx="1" fill="#9CA5B3"/>
<rect opacity="0.66" x="260" width="2" height="16" rx="1" fill="#9CA5B3"/>
<rect opacity="0.66" x="264" y="3" width="2" height="10" rx="1" fill="#9CA5B3"/>
<rect opacity="0.66" x="268" y="3" width="2" height="10" rx="1" fill="#9CA5B3"/>
<rect opacity="0.66" x="272" y="6" width="2" height="4" rx="1" fill="#9CA5B3"/>
<rect opacity="0.66" x="276" y="6" width="2" height="4" rx="1" fill="#9CA5B3"/>
<rect opacity="0.66" x="280" y="7" width="2" height="2" rx="1" fill="#9CA5B3"/>
<rect opacity="0.66" x="284" y="7" width="2" height="2" rx="1" fill="#9CA5B3"/>
<rect opacity="0.66" x="288" y="7" width="2" height="2" rx="1" fill="#9CA5B3"/>
<rect opacity="0.66" x="292" y="3" width="2" height="10" rx="1" fill="#9CA5B3"/>
<rect opacity="0.66" x="296" y="1" width="2" height="14" rx="1" fill="#9CA5B3"/>
<rect opacity="0.66" x="300" y="3" width="2" height="10" rx="1" fill="#9CA5B3"/>
<rect opacity="0.66" x="304" y="1" width="2" height="14" rx="1" fill="#9CA5B3"/>
<rect opacity="0.66" x="308" y="1" width="2" height="14" rx="1" fill="#9CA5B3"/>
<rect opacity="0.66" x="312" y="3" width="2" height="10" rx="1" fill="#9CA5B3"/>
<rect opacity="0.66" x="316" y="3" width="2" height="10" rx="1" fill="#9CA5B3"/>
<rect opacity="0.66" x="320" y="1" width="2" height="14" rx="1" fill="#9CA5B3"/>
<rect opacity="0.66" x="324" y="1" width="2" height="14" rx="1" fill="#9CA5B3"/>
<rect opacity="0.66" x="328" y="1" width="2" height="14" rx="1" fill="#9CA5B3"/>
<rect opacity="0.66" x="332" y="1" width="2" height="14" rx="1" fill="#9CA5B3"/>
<rect opacity="0.66" x="336" width="2" height="16" rx="1" fill="#9CA5B3"/>
<rect opacity="0.66" x="340" width="2" height="16" rx="1" fill="#9CA5B3"/>
<rect opacity="0.66" x="344" y="3" width="2" height="10" rx="1" fill="#9CA5B3"/>
<rect opacity="0.66" x="348" y="3" width="2" height="10" rx="1" fill="#9CA5B3"/>
<rect opacity="0.66" x="352" y="3" width="2" height="10" rx="1" fill="#9CA5B3"/>
<rect opacity="0.66" x="356" y="6" width="2" height="4" rx="1" fill="#9CA5B3"/>
<rect opacity="0.66" x="360" y="7" width="2" height="2" rx="1" fill="#9CA5B3"/>
</svg>
