<svg width="18" height="18" viewBox="0 0 18 18" fill="none" xmlns="http://www.w3.org/2000/svg">
<path d="M3.19482 8.26508V11.9926C3.19482 13.3576 3.19482 13.3576 4.48482 14.2276L8.03232 16.2751C8.56482 16.5826 9.43482 16.5826 9.96732 16.2751L13.5148 14.2276C14.8048 13.3576 14.8048 13.3576 14.8048 11.9926V8.26508C14.8048 6.90008 14.8048 6.90008 13.5148 6.03008L9.96732 3.98258C9.43482 3.67508 8.56482 3.67508 8.03232 3.98258L4.48482 6.03008C3.19482 6.90008 3.19482 6.90008 3.19482 8.26508Z" stroke="#202020" stroke-width="1.5" stroke-linecap="round" stroke-linejoin="round"/>
<path d="M13.125 5.7225V3.75C13.125 2.25 12.375 1.5 10.875 1.5H7.125C5.625 1.5 4.875 2.25 4.875 3.75V5.67" stroke="#202020" stroke-width="1.5" stroke-linecap="round" stroke-linejoin="round"/>
<path d="M9.47234 8.24223L9.89983 8.90973C9.96733 9.01473 10.1173 9.11973 10.2298 9.14973L10.9948 9.34473C11.4673 9.46473 11.5948 9.86973 11.2873 10.2447L10.7848 10.8522C10.7098 10.9497 10.6498 11.1222 10.6573 11.2422L10.7023 12.0297C10.7323 12.5172 10.3873 12.7647 9.93734 12.5847L9.20234 12.2922C9.08984 12.2472 8.90234 12.2472 8.78984 12.2922L8.05484 12.5847C7.60484 12.7647 7.25984 12.5097 7.28984 12.0297L7.33484 11.2422C7.34234 11.1222 7.28233 10.9422 7.20733 10.8522L6.70483 10.2447C6.39733 9.86973 6.52484 9.46473 6.99734 9.34473L7.76234 9.14973C7.88234 9.11973 8.03234 9.00723 8.09234 8.90973L8.51984 8.24223C8.78984 7.83723 9.20984 7.83723 9.47234 8.24223Z" stroke="#202020" stroke-width="1.5" stroke-linecap="round" stroke-linejoin="round"/>
</svg>
