<svg width="43" height="21" viewBox="0 0 43 21" fill="none" xmlns="http://www.w3.org/2000/svg">
<rect y="0.780273" width="43" height="19.44" rx="9.72" fill="#D1FFD0"/>
<path d="M13.7654 14.0903H12.5054V6.78027H13.7754L17.5754 12.5303H17.2054V6.78027H18.4654V14.0903H17.2054L13.3954 8.35027H13.7654V14.0903Z" fill="#05ED00"/>
<path d="M22.1135 14.2203C21.6268 14.2203 21.1935 14.1103 20.8135 13.8903C20.4402 13.6636 20.1468 13.3569 19.9335 12.9703C19.7202 12.5769 19.6135 12.1269 19.6135 11.6203C19.6135 11.1069 19.7168 10.6536 19.9235 10.2603C20.1302 9.86694 20.4202 9.56027 20.7935 9.34027C21.1668 9.11361 21.5935 9.00027 22.0735 9.00027C22.5735 9.00027 23.0035 9.10694 23.3635 9.32027C23.7235 9.52694 24.0002 9.81694 24.1935 10.1903C24.3935 10.5636 24.4935 11.0103 24.4935 11.5303V11.9003L20.2535 11.9103L20.2735 11.1303H23.2835C23.2835 10.7903 23.1735 10.5169 22.9535 10.3103C22.7402 10.1036 22.4502 10.0003 22.0835 10.0003C21.7968 10.0003 21.5535 10.0603 21.3535 10.1803C21.1602 10.3003 21.0135 10.4803 20.9135 10.7203C20.8135 10.9603 20.7635 11.2536 20.7635 11.6003C20.7635 12.1336 20.8768 12.5369 21.1035 12.8103C21.3368 13.0836 21.6802 13.2203 22.1335 13.2203C22.4668 13.2203 22.7402 13.1569 22.9535 13.0303C23.1735 12.9036 23.3168 12.7236 23.3835 12.4903H24.5135C24.4068 13.0303 24.1402 13.4536 23.7135 13.7603C23.2935 14.0669 22.7602 14.2203 22.1135 14.2203Z" fill="#05ED00"/>
<path d="M26.3548 14.0903L24.7548 9.15027H26.0248L26.6748 11.2703C26.7282 11.4636 26.7815 11.6669 26.8348 11.8803C26.8882 12.0936 26.9348 12.3169 26.9748 12.5503C27.0082 12.3903 27.0382 12.2436 27.0648 12.1103C27.0982 11.9769 27.1348 11.8469 27.1748 11.7203C27.2148 11.5869 27.2615 11.4369 27.3148 11.2703L27.9948 9.15027H29.2348L29.8948 11.2703C29.9082 11.3169 29.9282 11.3969 29.9548 11.5103C29.9882 11.6169 30.0215 11.7336 30.0548 11.8603C30.0882 11.9869 30.1182 12.1136 30.1448 12.2403C30.1782 12.3603 30.2015 12.4636 30.2148 12.5503C30.2415 12.4236 30.2748 12.2803 30.3148 12.1203C30.3548 11.9603 30.3948 11.8069 30.4348 11.6603C30.4815 11.5069 30.5182 11.3769 30.5448 11.2703L31.2048 9.15027H32.4948L30.7848 14.0903H29.6448L28.9648 11.9503C28.8648 11.6236 28.7848 11.3469 28.7248 11.1203C28.6648 10.8869 28.6248 10.7069 28.6048 10.5803C28.5848 10.7003 28.5482 10.8603 28.4948 11.0603C28.4415 11.2603 28.3515 11.5636 28.2248 11.9703L27.5448 14.0903H26.3548Z" fill="#05ED00"/>
</svg>
