<svg width="45" height="20" viewBox="0 0 45 20" fill="none" xmlns="http://www.w3.org/2000/svg">
<rect width="45" height="20" rx="10" fill="#4790FF"/>
<path d="M11.6334 7.07959V12.9276H10.6094V7.07959H11.6334ZM12.9214 10.9116H11.3854V9.99959H12.7054C13.0574 9.99959 13.324 9.91159 13.5054 9.73559C13.692 9.55425 13.7854 9.30359 13.7854 8.98359C13.7854 8.66359 13.692 8.41825 13.5054 8.24759C13.324 8.07692 13.0627 7.99159 12.7214 7.99159H11.2894V7.07959H12.9214C13.316 7.07959 13.6574 7.15959 13.9454 7.31959C14.2334 7.47959 14.4574 7.70359 14.6174 7.99159C14.7774 8.27425 14.8574 8.60759 14.8574 8.99159C14.8574 9.36492 14.7774 9.69825 14.6174 9.99159C14.4574 10.2796 14.2334 10.5063 13.9454 10.6716C13.6574 10.8316 13.316 10.9116 12.9214 10.9116Z" fill="white"/>
<path d="M16.7428 12.9276H15.7188V7.07959H17.9508C18.6121 7.07959 19.1267 7.23959 19.4948 7.55959C19.8681 7.87959 20.0548 8.32759 20.0548 8.90359C20.0548 9.29292 19.9641 9.62625 19.7828 9.90359C19.6068 10.1756 19.3454 10.3836 18.9988 10.5276L20.1108 12.9276H18.9908L17.9988 10.7436H16.7428V12.9276ZM16.7428 7.99159V9.83959H17.9508C18.2761 9.83959 18.5294 9.75692 18.7108 9.59159C18.8921 9.42625 18.9827 9.19692 18.9827 8.90359C18.9827 8.61025 18.8921 8.38625 18.7108 8.23159C18.5294 8.07159 18.2761 7.99159 17.9508 7.99159H16.7428Z" fill="white"/>
<path d="M26.3905 9.99959C26.3905 10.5916 26.2705 11.1169 26.0305 11.5756C25.7905 12.0289 25.4572 12.3836 25.0305 12.6396C24.6038 12.8956 24.1105 13.0236 23.5505 13.0236C22.9958 13.0236 22.5052 12.8956 22.0785 12.6396C21.6518 12.3836 21.3185 12.0289 21.0785 11.5756C20.8438 11.1223 20.7265 10.5996 20.7265 10.0076C20.7265 9.41025 20.8465 8.88492 21.0865 8.43159C21.3265 7.97292 21.6572 7.61559 22.0785 7.35959C22.5052 7.10359 22.9985 6.97559 23.5585 6.97559C24.1185 6.97559 24.6092 7.10359 25.0305 7.35959C25.4572 7.61559 25.7905 7.97025 26.0305 8.42359C26.2705 8.87692 26.3905 9.40225 26.3905 9.99959ZM25.3185 9.99959C25.3185 9.58359 25.2465 9.22359 25.1025 8.91959C24.9585 8.61559 24.7558 8.38092 24.4945 8.21559C24.2332 8.04492 23.9212 7.95959 23.5585 7.95959C23.2012 7.95959 22.8892 8.04492 22.6225 8.21559C22.3612 8.38092 22.1585 8.61559 22.0145 8.91959C21.8705 9.22359 21.7985 9.58359 21.7985 9.99959C21.7985 10.4156 21.8705 10.7783 22.0145 11.0876C22.1585 11.3916 22.3612 11.6263 22.6225 11.7916C22.8892 11.9569 23.2012 12.0396 23.5585 12.0396C23.9212 12.0396 24.2332 11.9569 24.4945 11.7916C24.7558 11.6209 24.9585 11.3836 25.1025 11.0796C25.2465 10.7703 25.3185 10.4103 25.3185 9.99959Z" fill="white"/>
<g clip-path="url(#clip0_2025_1922)">
<path d="M31.3906 7L32.3176 8.97476L34.3906 9.29338L32.8906 10.8297L33.2446 13L31.3906 11.9748L29.5366 13L29.8906 10.8297L28.3906 9.29338L30.4636 8.97476L31.3906 7Z" fill="white"/>
</g>
<defs>
<clipPath id="clip0_2025_1922">
<rect width="6" height="6" fill="white" transform="translate(28.3906 7)"/>
</clipPath>
</defs>
</svg>
