<svg>
    <symbol id="magnifier" viewBox="0 0 17 16" fill="none" xmlns="http://www.w3.org/2000/svg">
        <path d="M7.5223 12.6667C10.4678 12.6667 12.8556 10.2789 12.8556 7.33333C12.8556 4.38781 10.4678 2 7.5223 2C4.57678 2 2.18896 4.38781 2.18896 7.33333C2.18896 10.2789 4.57678 12.6667 7.5223 12.6667Z" stroke-linecap="round" stroke-linejoin="round"/>
        <path d="M14.1884 13.9995L11.3218 11.1328" stroke-linecap="round" stroke-linejoin="round"/>
    </symbol>

    <symbol id="join" viewBox="0 0 17 16" fill="none" xmlns="http://www.w3.org/2000/svg">
        <path d="M10.8563 14V12.6667C10.8563 11.9594 10.5753 11.2811 10.0752 10.781C9.57514 10.281 8.89686 10 8.18962 10H4.18962C3.48237 10 2.80409 10.281 2.304 10.781C1.8039 11.2811 1.52295 11.9594 1.52295 12.6667V14" stroke-linecap="round" stroke-linejoin="round"/>
        <path d="M6.18962 7.33333C7.66238 7.33333 8.85628 6.13943 8.85628 4.66667C8.85628 3.19391 7.66238 2 6.18962 2C4.71686 2 3.52295 3.19391 3.52295 4.66667C3.52295 6.13943 4.71686 7.33333 6.18962 7.33333Z" stroke-linecap="round" stroke-linejoin="round"/>
        <path d="M12.855 5.33594V9.33594" stroke-linecap="round" stroke-linejoin="round"/>
        <path d="M14.855 7.33594H10.855" stroke-linecap="round" stroke-linejoin="round"/>
    </symbol>

    <symbol id="pro" width="45" height="20" viewBox="0 0 45 20" fill="none" xmlns="http://www.w3.org/2000/svg">
        <rect width="45" height="20" rx="10" fill="#4790FF"/>
        <path d="M11.6334 7.07959V12.9276H10.6094V7.07959H11.6334ZM12.9214 10.9116H11.3854V9.99959H12.7054C13.0574 9.99959 13.324 9.91159 13.5054 9.73559C13.692 9.55425 13.7854 9.30359 13.7854 8.98359C13.7854 8.66359 13.692 8.41825 13.5054 8.24759C13.324 8.07692 13.0627 7.99159 12.7214 7.99159H11.2894V7.07959H12.9214C13.316 7.07959 13.6574 7.15959 13.9454 7.31959C14.2334 7.47959 14.4574 7.70359 14.6174 7.99159C14.7774 8.27425 14.8574 8.60759 14.8574 8.99159C14.8574 9.36492 14.7774 9.69825 14.6174 9.99159C14.4574 10.2796 14.2334 10.5063 13.9454 10.6716C13.6574 10.8316 13.316 10.9116 12.9214 10.9116Z" fill="white"/>
        <path d="M16.7428 12.9276H15.7188V7.07959H17.9508C18.6121 7.07959 19.1267 7.23959 19.4948 7.55959C19.8681 7.87959 20.0548 8.32759 20.0548 8.90359C20.0548 9.29292 19.9641 9.62625 19.7828 9.90359C19.6068 10.1756 19.3454 10.3836 18.9988 10.5276L20.1108 12.9276H18.9908L17.9988 10.7436H16.7428V12.9276ZM16.7428 7.99159V9.83959H17.9508C18.2761 9.83959 18.5294 9.75692 18.7108 9.59159C18.8921 9.42625 18.9827 9.19692 18.9827 8.90359C18.9827 8.61025 18.8921 8.38625 18.7108 8.23159C18.5294 8.07159 18.2761 7.99159 17.9508 7.99159H16.7428Z" fill="white"/>
        <path d="M26.3905 9.99959C26.3905 10.5916 26.2705 11.1169 26.0305 11.5756C25.7905 12.0289 25.4572 12.3836 25.0305 12.6396C24.6038 12.8956 24.1105 13.0236 23.5505 13.0236C22.9958 13.0236 22.5052 12.8956 22.0785 12.6396C21.6518 12.3836 21.3185 12.0289 21.0785 11.5756C20.8438 11.1223 20.7265 10.5996 20.7265 10.0076C20.7265 9.41025 20.8465 8.88492 21.0865 8.43159C21.3265 7.97292 21.6572 7.61559 22.0785 7.35959C22.5052 7.10359 22.9985 6.97559 23.5585 6.97559C24.1185 6.97559 24.6092 7.10359 25.0305 7.35959C25.4572 7.61559 25.7905 7.97025 26.0305 8.42359C26.2705 8.87692 26.3905 9.40225 26.3905 9.99959ZM25.3185 9.99959C25.3185 9.58359 25.2465 9.22359 25.1025 8.91959C24.9585 8.61559 24.7558 8.38092 24.4945 8.21559C24.2332 8.04492 23.9212 7.95959 23.5585 7.95959C23.2012 7.95959 22.8892 8.04492 22.6225 8.21559C22.3612 8.38092 22.1585 8.61559 22.0145 8.91959C21.8705 9.22359 21.7985 9.58359 21.7985 9.99959C21.7985 10.4156 21.8705 10.7783 22.0145 11.0876C22.1585 11.3916 22.3612 11.6263 22.6225 11.7916C22.8892 11.9569 23.2012 12.0396 23.5585 12.0396C23.9212 12.0396 24.2332 11.9569 24.4945 11.7916C24.7558 11.6209 24.9585 11.3836 25.1025 11.0796C25.2465 10.7703 25.3185 10.4103 25.3185 9.99959Z" fill="white"/>
        <g clip-path="url(#clip0_2025_1922)">
        <path d="M31.3906 7L32.3176 8.97476L34.3906 9.29338L32.8906 10.8297L33.2446 13L31.3906 11.9748L29.5366 13L29.8906 10.8297L28.3906 9.29338L30.4636 8.97476L31.3906 7Z" fill="white"/>
        </g>
        <defs>
        <clipPath id="clip0_2025_1922">
        <rect width="6" height="6" fill="white" transform="translate(28.3906 7)"/>
        </clipPath>
        </defs>
    </symbol>

    <symbol id="plus-sm" viewBox="0 0 13 13" fill="none" xmlns="http://www.w3.org/2000/svg">
        <path d="M1.17285 6.44922H11.9315Z" />
        <path d="M6.55176 1.07031V11.8289Z" />
        <path d="M1.17285 6.44922H11.9315M6.55176 1.07031V11.8289" stroke-width="1.5" stroke-linecap="round" stroke-linejoin="round"/>
    </symbol>

    <symbol id="global" viewBox="0 0 12 12" fill="none" xmlns="http://www.w3.org/2000/svg">
        <path d="M6 11C8.76142 11 11 8.76142 11 6C11 3.23858 8.76142 1 6 1C3.23858 1 1 3.23858 1 6C1 8.76142 3.23858 11 6 11Z" stroke-linecap="round" stroke-linejoin="round"/>
        <path d="M3.9998 1.5H4.4998C3.5248 4.42 3.5248 7.58 4.4998 10.5H3.9998" stroke-linecap="round" stroke-linejoin="round"/>
        <path d="M7.5 1.5C8.475 4.42 8.475 7.58 7.5 10.5" stroke-linecap="round" stroke-linejoin="round"/>
        <path d="M1.5 8V7.5C4.42 8.475 7.58 8.475 10.5 7.5V8" stroke-linecap="round" stroke-linejoin="round"/>
        <path d="M1.5 4.50078C4.42 3.52578 7.58 3.52578 10.5 4.50078" stroke-linecap="round" stroke-linejoin="round"/>
    </symbol>

    <symbol id="lovely" viewBox="0 0 18 19" fill="none" xmlns="http://www.w3.org/2000/svg">
        <path d="M14.895 6.56671C14.895 6.88171 14.8725 7.18921 14.835 7.48171C14.49 7.33171 14.115 7.24921 13.7175 7.24921C12.8025 7.24921 11.9925 7.69171 11.49 8.36671C10.98 7.69171 10.17 7.24921 9.255 7.24921C7.7175 7.24921 6.4725 8.50171 6.4725 10.0542C6.4725 12.0642 7.5375 13.6017 8.7225 14.6442C8.685 14.6667 8.64751 14.6742 8.61001 14.6892C8.38501 14.7717 8.01 14.7717 7.785 14.6892C5.8425 14.0217 1.5 11.2617 1.5 6.56671C1.5 4.49671 3.16499 2.82422 5.21999 2.82422C6.44249 2.82422 7.52249 3.40921 8.19749 4.31671C8.87999 3.40921 9.96 2.82422 11.175 2.82422C13.23 2.82422 14.895 4.49671 14.895 6.56671Z" stroke-width="1.5" stroke-linecap="round" stroke-linejoin="round"/>
        <path d="M16.5002 10.055C16.5002 13.565 13.2527 15.635 11.7977 16.13C11.6252 16.19 11.3476 16.19 11.1751 16.13C10.5526 15.92 9.60016 15.4175 8.72266 14.645C7.53766 13.6025 6.47266 12.065 6.47266 10.055C6.47266 8.50249 7.71765 7.25 9.25515 7.25C10.1701 7.25 10.9802 7.69249 11.4902 8.36749C11.9927 7.69249 12.8027 7.25 13.7177 7.25C14.1152 7.25 14.4902 7.3325 14.8352 7.4825C15.8177 7.9175 16.5002 8.89999 16.5002 10.055Z" stroke-width="1.5" stroke-linecap="round" stroke-linejoin="round"/>
    </symbol>

    <symbol id="emoji-happy" viewBox="0 0 18 19" fill="none" xmlns="http://www.w3.org/2000/svg">
        <path d="M6.75 17.0977H11.25C15 17.0977 16.5 15.5977 16.5 11.8477V7.34766C16.5 3.59766 15 2.09766 11.25 2.09766H6.75C3 2.09766 1.5 3.59766 1.5 7.34766V11.8477C1.5 15.5977 3 17.0977 6.75 17.0977Z" stroke-width="1.5" stroke-linecap="round" stroke-linejoin="round"/>
        <path d="M11.625 7.91016C12.2463 7.91016 12.75 7.40648 12.75 6.78516C12.75 6.16384 12.2463 5.66016 11.625 5.66016C11.0037 5.66016 10.5 6.16384 10.5 6.78516C10.5 7.40648 11.0037 7.91016 11.625 7.91016Z" stroke-width="1.5" stroke-miterlimit="10" stroke-linecap="round" stroke-linejoin="round"/>
        <path d="M6.375 7.91016C6.99632 7.91016 7.5 7.40648 7.5 6.78516C7.5 6.16384 6.99632 5.66016 6.375 5.66016C5.75368 5.66016 5.25 6.16384 5.25 6.78516C5.25 7.40648 5.75368 7.91016 6.375 7.91016Z" stroke-width="1.5" stroke-miterlimit="10" stroke-linecap="round" stroke-linejoin="round"/>
        <path d="M6.3 10.5723H11.7C12.075 10.5723 12.375 10.8723 12.375 11.2473C12.375 13.1148 10.8675 14.6223 9 14.6223C7.1325 14.6223 5.625 13.1148 5.625 11.2473C5.625 10.8723 5.925 10.5723 6.3 10.5723Z" stroke-width="1.5" stroke-miterlimit="10" stroke-linecap="round" stroke-linejoin="round"/>
    </symbol>

    <symbol id="emoji-sad" viewBox="0 0 18 19" fill="none" xmlns="http://www.w3.org/2000/svg">
        <path d="M6.75 17.0977H11.25C15 17.0977 16.5 15.5977 16.5 11.8477V7.34766C16.5 3.59766 15 2.09766 11.25 2.09766H6.75C3 2.09766 1.5 3.59766 1.5 7.34766V11.8477C1.5 15.5977 3 17.0977 6.75 17.0977Z" stroke-width="1.5" stroke-linecap="round" stroke-linejoin="round"/>
        <path d="M5.25 7.16016C6 6.41016 7.2225 6.41016 7.98 7.16016" stroke-width="1.5" stroke-miterlimit="10" stroke-linecap="round" stroke-linejoin="round"/>
        <path d="M10.02 7.16016C10.77 6.41016 11.9925 6.41016 12.75 7.16016" stroke-width="1.5" stroke-miterlimit="10" stroke-linecap="round" stroke-linejoin="round"/>
        <path d="M6.3 13.8723H11.7C12.075 13.8723 12.375 13.5723 12.375 13.1973C12.375 11.3298 10.8675 9.82227 9 9.82227C7.1325 9.82227 5.625 11.3298 5.625 13.1973C5.625 13.5723 5.925 13.8723 6.3 13.8723Z" stroke-width="1.5" stroke-miterlimit="10" stroke-linecap="round" stroke-linejoin="round"/>
    </symbol>

    <symbol id="mark" viewBox="0 0 10 10" fill="none" xmlns="http://www.w3.org/2000/svg">
        <path d="M9 2.5L3.5 7.5L1 5.22727" stroke-width="1.5" stroke-linecap="round" stroke-linejoin="round"/>
    </symbol>

    <symbol id="verify" width="18" height="19" viewBox="0 0 18 19" fill="none" xmlns="http://www.w3.org/2000/svg">
        <path d="M15.001 10.2523C15.001 14.0023 12.376 15.8773 9.25598 16.9648C9.0926 17.0202 8.91513 17.0175 8.75348 16.9573C5.62598 15.8773 3.00098 14.0023 3.00098 10.2523V5.00229C3.00098 4.80338 3.07999 4.61261 3.22065 4.47196C3.3613 4.33131 3.55206 4.25229 3.75098 4.25229C5.25098 4.25229 7.12598 3.35229 8.43098 2.21229C8.58987 2.07654 8.79199 2.00195 9.00098 2.00195C9.20996 2.00195 9.41209 2.07654 9.57098 2.21229C10.8835 3.35979 12.751 4.25229 14.251 4.25229C14.4499 4.25229 14.6407 4.33131 14.7813 4.47196C14.922 4.61261 15.001 4.80338 15.001 5.00229V10.2523Z" stroke="#4790FF" stroke-linecap="round" stroke-linejoin="round"/>
        <path d="M6.75 9.49805L8.25 10.998L11.25 7.99805" stroke="#4790FF" stroke-linecap="round" stroke-linejoin="round"/>
    </symbol>

    <symbol id="cross" viewBox="0 0 13 13" fill="none" xmlns="http://www.w3.org/2000/svg">
        <path d="M9.5 3.5L3.5 9.5M3.5 3.5L9.5 9.5" stroke-width="1.5" stroke-linecap="round" stroke-linejoin="round"/>
    </symbol>

    <symbol id="heart" viewBox="0 0 16 16" fill="none" xmlns="http://www.w3.org/2000/svg">
        <path d="M7.903 13.9393C7.682 14.0202 7.318 14.0202 7.097 13.9393C5.212 13.2719 1 10.4876 1 5.76854C1 3.68539 2.6185 2 4.614 2C5.797 2 6.8435 2.59326 7.5 3.51011C8.1565 2.59326 9.2095 2 10.386 2C12.3815 2 14 3.68539 14 5.76854C14 10.4876 9.788 13.2719 7.903 13.9393Z" stroke-linecap="round" stroke-linejoin="round"/>
    </symbol>

    <symbol id="star" viewBox="0 0 9 8" xmlns="http://www.w3.org/2000/svg">
        <path d="M5.20961 0.577671L5.91353 1.99715C6.00952 2.19475 6.26549 2.38428 6.48147 2.42057L7.75733 2.6343C8.57324 2.77141 8.76522 3.36824 8.17728 3.957L7.18539 4.95709C7.01741 5.12645 6.92542 5.4531 6.97741 5.68699L7.26138 6.925C7.48536 7.90492 6.96941 8.28399 6.10951 7.77185L4.91364 7.05808C4.69767 6.92903 4.34171 6.92903 4.12173 7.05808L2.92586 7.77185C2.06996 8.28399 1.55001 7.90089 1.77399 6.925L2.05796 5.68699C2.10995 5.4531 2.01796 5.12645 1.84998 4.95709L0.85809 3.957C0.274155 3.36824 0.462134 2.77141 1.27804 2.6343L2.5539 2.42057C2.76588 2.38428 3.02185 2.19475 3.11784 1.99715L3.82176 0.577671C4.20572 -0.192557 4.82965 -0.192557 5.20961 0.577671Z" />
    </symbol>

    <symbol id="smile" viewBox="0 0 16 17" fill="none" xmlns="http://www.w3.org/2000/svg">
        <path d="M14.6672 7.8342V8.50086C14.6605 9.84641 14.2467 11.1584 13.4804 12.2644C12.714 13.3704 11.6309 14.2186 10.3735 14.6976C9.11603 15.1765 7.74309 15.2637 6.43515 14.9477C5.12721 14.6317 3.9455 13.9274 3.04536 12.9272C2.14523 11.9271 1.56881 10.6779 1.39187 9.34406C1.21494 8.01018 1.44579 6.65398 2.05406 5.45375C2.66233 4.25352 3.61955 3.26545 4.79988 2.61942C5.98022 1.97339 7.32842 1.69966 8.66724 1.8342" stroke-width="1.5" stroke-linecap="round" stroke-linejoin="round"/>
        <path d="M5.33398 9.83203C5.33398 9.83203 6.33398 11.1654 8.00065 11.1654C9.66732 11.1654 10.6673 9.83203 10.6673 9.83203" stroke-width="1.5" stroke-linecap="round" stroke-linejoin="round"/>
        <path d="M6 6.5H6.00667" stroke-width="1.5" stroke-linecap="round" stroke-linejoin="round"/>
        <path d="M10 6.5H10.0067" stroke-width="1.5" stroke-linecap="round" stroke-linejoin="round"/>
        <path d="M10.666 3.83203H14.666" stroke-width="1.5" stroke-linecap="round" stroke-linejoin="round"/>
        <path d="M12.666 1.83203V5.83203" stroke-width="1.5" stroke-linecap="round" stroke-linejoin="round"/>
    </symbol>

    <symbol id="sort" viewBox="0 0 18 18" fill="none" xmlns="http://www.w3.org/2000/svg">
        <path d="M2.625 5.45801H15.375" stroke-width="1.5" stroke-linecap="round"/>
        <path d="M4.75 9H13.25" stroke-width="1.5" stroke-linecap="round"/>
        <path d="M7.5835 12.542H10.4168" stroke-width="1.5" stroke-linecap="round"/>
    </symbol>

    <symbol id="filter" viewBox="0 0 12 12" fill="none" xmlns="http://www.w3.org/2000/svg">
        <path d="M2.7002 1.0498H9.3002C9.8502 1.0498 10.3002 1.4998 10.3002 2.0498V3.1498C10.3002 3.5498 10.0502 4.0498 9.8002 4.2998L7.6502 6.1998C7.3502 6.4498 7.1502 6.9498 7.1502 7.3498V9.4998C7.1502 9.7998 6.9502 10.1998 6.7002 10.3498L6.0002 10.7998C5.3502 11.1998 4.4502 10.7498 4.4502 9.9498V7.2998C4.4502 6.9498 4.2502 6.4998 4.0502 6.2498L2.1502 4.2498C1.9002 3.9998 1.7002 3.5498 1.7002 3.2498V2.0998C1.7002 1.4998 2.1502 1.0498 2.7002 1.0498Z" stroke-width="1.5" stroke-miterlimit="10" stroke-linecap="round" stroke-linejoin="round"/>
        <path d="M5.465 1.0498L3 4.9998" stroke-width="1.5" stroke-miterlimit="10" stroke-linecap="round" stroke-linejoin="round"/>
    </symbol>

    <symbol id="message" viewBox="0 0 16 17" fill="none" xmlns="http://www.w3.org/2000/svg">
        <path d="M5.66536 13.1654H5.33203C2.66536 13.1654 1.33203 12.4987 1.33203 9.16537V5.83203C1.33203 3.16536 2.66536 1.83203 5.33203 1.83203H10.6654C13.332 1.83203 14.6654 3.16536 14.6654 5.83203V9.16537C14.6654 11.832 13.332 13.1654 10.6654 13.1654H10.332C10.1254 13.1654 9.92536 13.2654 9.7987 13.432L8.7987 14.7654C8.3587 15.352 7.6387 15.352 7.1987 14.7654L6.1987 13.432C6.09203 13.2854 5.84536 13.1654 5.66536 13.1654Z" stroke-width="1.5" stroke-miterlimit="10" stroke-linecap="round" stroke-linejoin="round"/>
        <path d="M10.6656 7.83333H10.6716" stroke-width="1.5" stroke-linecap="round" stroke-linejoin="round"/>
        <path d="M7.99764 7.83333H8.00363" stroke-width="1.5" stroke-linecap="round" stroke-linejoin="round"/>
        <path d="M5.32967 7.83333H5.33566" stroke-width="1.5" stroke-linecap="round" stroke-linejoin="round"/>
    </symbol>

    <symbol id="message-text" viewBox="0 0 19 19" fill="none" xmlns="http://www.w3.org/2000/svg">
        <path d="M6.72982 15.0404H6.33398C3.16732 15.0404 1.58398 14.2487 1.58398 10.2904V6.33203C1.58398 3.16536 3.16732 1.58203 6.33398 1.58203H12.6673C15.834 1.58203 17.4173 3.16536 17.4173 6.33203V10.2904C17.4173 13.457 15.834 15.0404 12.6673 15.0404H12.2715C12.0261 15.0404 11.7886 15.1591 11.6382 15.357L10.4507 16.9404C9.92815 17.637 9.07315 17.637 8.55065 16.9404L7.36315 15.357C7.23648 15.1829 6.94357 15.0404 6.72982 15.0404Z" stroke-width="1.5" stroke-miterlimit="10" stroke-linecap="round" stroke-linejoin="round"/>
        <path d="M5.54102 6.33203H13.4577" stroke-width="1.5" stroke-linecap="round" stroke-linejoin="round"/>
        <path d="M5.54102 10.293H10.291" stroke-width="1.5" stroke-linecap="round" stroke-linejoin="round"/>
    </symbol>

    <symbol id="gallery" viewBox="0 0 19 19" fill="none" xmlns="http://www.w3.org/2000/svg">
        <path d="M7.12565 17.4154H11.8757C15.834 17.4154 17.4173 15.832 17.4173 11.8737V7.1237C17.4173 3.16536 15.834 1.58203 11.8757 1.58203H7.12565C3.16732 1.58203 1.58398 3.16536 1.58398 7.1237V11.8737C1.58398 15.832 3.16732 17.4154 7.12565 17.4154Z" stroke-width="1.5" stroke-linecap="round" stroke-linejoin="round"/>
        <path d="M7.12435 7.91667C7.9988 7.91667 8.70768 7.20778 8.70768 6.33333C8.70768 5.45888 7.9988 4.75 7.12435 4.75C6.2499 4.75 5.54102 5.45888 5.54102 6.33333C5.54102 7.20778 6.2499 7.91667 7.12435 7.91667Z" stroke-width="1.5" stroke-linecap="round" stroke-linejoin="round"/>
        <path d="M2.11328 15.0002L6.0162 12.3797C6.64161 11.9602 7.54411 12.0077 8.1062 12.4906L8.36745 12.7202C8.98495 13.2506 9.98245 13.2506 10.5999 12.7202L13.8933 9.89391C14.5108 9.36349 15.5083 9.36349 16.1258 9.89391L17.4162 11.0022" stroke-width="1.5" stroke-linecap="round" stroke-linejoin="round"/>
    </symbol>

    <symbol id="timer" viewBox="0 0 16 17" fill="none" xmlns="http://www.w3.org/2000/svg">
        <g clip-path="url(#clip0_748_6608)">
        <path d="M7 1.5H10" stroke-width="1.5" stroke-linecap="round" stroke-linejoin="round"/>
        <path d="M8 9.5L10 7.5" stroke-width="1.5" stroke-linecap="round" stroke-linejoin="round"/>
        <path d="M8.5 15.5C11.5376 15.5 14 13.0376 14 10C14 6.96243 11.5376 4.5 8.5 4.5C5.46243 4.5 3 6.96243 3 10C3 13.0376 5.46243 15.5 8.5 15.5Z" stroke-width="1.5" stroke-linecap="round" stroke-linejoin="round"/>
        </g>
        <defs>
        <clipPath id="clip0_748_6608">
        <rect width="16" height="16" fill="white" transform="translate(0 0.5)"/>
        </clipPath>
        </defs>
    </symbol>

    <symbol id="marks" viewBox="0 0 16 17" xmlns="http://www.w3.org/2000/svg">
        <rect y="0.5" width="16" height="16" rx="8" stroke="none"/>
        <g clip-path="url(#clip0_748_6600)">
        <path d="M11 5.5L5.5 11.5L3 8.77273" fill="none" stroke-linecap="round" stroke-linejoin="round"/>
        <path d="M14 7.5L9.83333 11.5L9 10.7" fill="none" stroke-linecap="round" stroke-linejoin="round"/>
        </g>
        <defs>
        <clipPath id="clip0_748_6600">
        <rect width="12" height="12" stroke="none" transform="translate(2 2.5)"/>
        </clipPath>
        </defs>
    </symbol>

    <symbol id="document" viewBox="0 0 18 18" fill="none" xmlns="http://www.w3.org/2000/svg">
        <path d="M16.5 7.5V11.25C16.5 15 15 16.5 11.25 16.5H6.75C3 16.5 1.5 15 1.5 11.25V6.75C1.5 3 3 1.5 6.75 1.5H10.5" stroke-width="1.5" stroke-linecap="round" stroke-linejoin="round"/>
        <path d="M16.5 7.5H13.5C11.25 7.5 10.5 6.75 10.5 4.5V1.5L16.5 7.5Z" stroke-width="1.5" stroke-linecap="round" stroke-linejoin="round"/>
        <path d="M5.25 9.75H9.75" stroke-width="1.5" stroke-linecap="round" stroke-linejoin="round"/>
        <path d="M5.25 12.75H8.25" stroke-width="1.5" stroke-linecap="round" stroke-linejoin="round"/>
    </symbol>

    <symbol id="document-upload" viewBox="0 0 19 18" fill="none" xmlns="http://www.w3.org/2000/svg">
        <path d="M7.25 12.75V8.25L5.75 9.75" stroke-width="1.5" stroke-linecap="round" stroke-linejoin="round"/>
        <path d="M7.25 8.25L8.75 9.75" stroke-width="1.5" stroke-linecap="round" stroke-linejoin="round"/>
        <path d="M17 7.5V11.25C17 15 15.5 16.5 11.75 16.5H7.25C3.5 16.5 2 15 2 11.25V6.75C2 3 3.5 1.5 7.25 1.5H11" stroke-width="1.5" stroke-linecap="round" stroke-linejoin="round"/>
        <path d="M17 7.5H14C11.75 7.5 11 6.75 11 4.5V1.5L17 7.5Z" stroke-width="1.5" stroke-linecap="round" stroke-linejoin="round"/>
    </symbol>


    <symbol id="portfolio-shapes" viewBox="0 0 18 19" fill="none" xmlns="http://www.w3.org/2000/svg">
        <path d="M12.7275 9.78516V13.1602C12.7275 15.9727 11.6025 17.0977 8.79004 17.0977H5.41504C2.60254 17.0977 1.47754 15.9727 1.47754 13.1602V9.78516C1.47754 6.97266 2.60254 5.84766 5.41504 5.84766H8.79004C11.6025 5.84766 12.7275 6.97266 12.7275 9.78516Z" stroke-width="1.5" stroke-linecap="round" stroke-linejoin="round"/>
        <path d="M16.4775 6.22266C16.4775 8.37516 14.835 10.1377 12.7275 10.3252V9.78516C12.7275 6.97266 11.6025 5.84766 8.79 5.84766H8.25C8.4375 3.74016 10.2 2.09766 12.3525 2.09766C14.445 2.09766 16.17 3.65016 16.4325 5.67516C16.4625 5.84766 16.4775 6.03516 16.4775 6.22266Z" stroke-width="1.5" stroke-linecap="round" stroke-linejoin="round"/>
    </symbol>

    <symbol id="eye" viewBox="0 0 16 16" fill="none" xmlns="http://www.w3.org/2000/svg">
        <path d="M10.3866 7.99995C10.3866 9.31995 9.31995 10.3866 7.99995 10.3866C6.67995 10.3866 5.61328 9.31995 5.61328 7.99995C5.61328 6.67995 6.67995 5.61328 7.99995 5.61328C9.31995 5.61328 10.3866 6.67995 10.3866 7.99995Z" stroke-linecap="round" stroke-linejoin="round"/>
        <path d="M7.9999 13.5138C10.3532 13.5138 12.5466 12.1271 14.0732 9.72713C14.6732 8.78713 14.6732 7.20713 14.0732 6.26713C12.5466 3.86713 10.3532 2.48047 7.9999 2.48047C5.64656 2.48047 3.45323 3.86713 1.92656 6.26713C1.32656 7.20713 1.32656 8.78713 1.92656 9.72713C3.45323 12.1271 5.64656 13.5138 7.9999 13.5138Z" stroke-linecap="round" stroke-linejoin="round"/>
    </symbol>

    <symbol id="shield-tick" viewBox="0 0 18 18" fill="none" xmlns="http://www.w3.org/2000/svg">
        <path d="M7.86762 1.67437L4.12512 3.08438C3.26262 3.40687 2.55762 4.42687 2.55762 5.34187V10.9144C2.55762 11.7994 3.14262 12.9619 3.85512 13.4944L7.08012 15.9019C8.13762 16.6969 9.87762 16.6969 10.9351 15.9019L14.1601 13.4944C14.8726 12.9619 15.4576 11.7994 15.4576 10.9144V5.34187C15.4576 4.41937 14.7526 3.39937 13.8901 3.07687L10.1476 1.67437C9.51012 1.44188 8.49012 1.44188 7.86762 1.67437Z" stroke-width="1.5" stroke-linecap="round" stroke-linejoin="round"/>
        <path d="M6.7876 8.90422L7.9951 10.1117L11.2201 6.88672" stroke-width="1.5" stroke-linecap="round" stroke-linejoin="round"/>
    </symbol>

    <symbol id="location" viewBox="0 0 16 16" fill="none" xmlns="http://www.w3.org/2000/svg">
        <path d="M7.99992 8.95297C9.14867 8.95297 10.0799 8.02172 10.0799 6.87297C10.0799 5.72422 9.14867 4.79297 7.99992 4.79297C6.85117 4.79297 5.91992 5.72422 5.91992 6.87297C5.91992 8.02172 6.85117 8.95297 7.99992 8.95297Z" stroke-width="1.5"/>
        <path d="M2.41184 5.6587C3.72517 -0.114634 12.2785 -0.107967 13.5852 5.66537C14.3518 9.05203 12.2452 11.9187 10.3985 13.692C9.0585 14.9854 6.9385 14.9854 5.59184 13.692C3.75184 11.9187 1.64517 9.04537 2.41184 5.6587Z" stroke-width="1.5"/>
    </symbol>

    <symbol id="call" viewBox="0 0 18 18" fill="none" xmlns="http://www.w3.org/2000/svg">
        <path d="M17 14.064C17 14.352 16.9359 14.648 16.7997 14.936C16.6635 15.224 16.4872 15.496 16.2549 15.752C15.8623 16.184 15.4296 16.496 14.9409 16.696C14.4602 16.896 13.9394 17 13.3786 17C12.5613 17 11.688 16.808 10.7666 16.416C9.84527 16.024 8.92389 15.496 8.01052 14.832C7.08913 14.16 6.21582 13.416 5.38257 12.592C4.55734 11.76 3.81222 10.888 3.14722 9.976C2.49024 9.064 1.96144 8.152 1.57687 7.248C1.19229 6.336 1 5.464 1 4.632C1 4.088 1.09614 3.568 1.28843 3.088C1.48072 2.6 1.78518 2.152 2.20981 1.752C2.72258 1.248 3.28343 1 3.87631 1C4.10065 1 4.32499 1.048 4.52529 1.144C4.7336 1.24 4.91788 1.384 5.06209 1.592L6.92088 4.208C7.0651 4.408 7.16925 4.592 7.24136 4.768C7.31347 4.936 7.35353 5.104 7.35353 5.256C7.35353 5.448 7.29745 5.64 7.18528 5.824C7.08112 6.008 6.92889 6.2 6.7366 6.392L6.12769 7.024C6.03956 7.112 5.9995 7.216 5.9995 7.344C5.9995 7.408 6.00751 7.464 6.02354 7.528C6.04757 7.592 6.07161 7.64 6.08763 7.688C6.23185 7.952 6.48022 8.296 6.83275 8.712C7.19329 9.128 7.57787 9.552 7.99449 9.976C8.42714 10.4 8.84377 10.792 9.2684 11.152C9.68503 11.504 10.0295 11.744 10.302 11.888C10.342 11.904 10.3901 11.928 10.4462 11.952C10.5103 11.976 10.5744 11.984 10.6465 11.984C10.7827 11.984 10.8868 11.936 10.975 11.848L11.5839 11.248C11.7842 11.048 11.9765 10.896 12.1607 10.8C12.345 10.688 12.5293 10.632 12.7296 10.632C12.8818 10.632 13.0421 10.664 13.2183 10.736C13.3946 10.808 13.5789 10.912 13.7792 11.048L16.4311 12.928C16.6395 13.072 16.7837 13.24 16.8718 13.44C16.9519 13.64 17 13.84 17 14.064Z" stroke-width="1.5" stroke-miterlimit="10"/>
    </symbol>

    <symbol id="undo" viewBox="0 0 18 19" fill="none" xmlns="http://www.w3.org/2000/svg">
        <path d="M12.6523 14.2344H6.65234C4.58234 14.2344 2.90234 12.5544 2.90234 10.4844C2.90234 8.41438 4.58234 6.73438 6.65234 6.73438H14.9023" stroke-width="1.5" stroke-miterlimit="10" stroke-linecap="round" stroke-linejoin="round"/>
        <path d="M13.1777 8.60563L15.0977 6.68562L13.1777 4.76562" stroke-width="1.5" stroke-linecap="round" stroke-linejoin="round"/>
    </symbol>


    <symbol id="user-octagon" viewBox="0 0 16 16" fill="none" xmlns="http://www.w3.org/2000/svg">
        <path d="M14.0543 5.71872V10.2787C14.0543 11.0254 13.6543 11.7187 13.0076 12.0987L9.04758 14.3854C8.40092 14.7587 7.60092 14.7587 6.94758 14.3854L2.98758 12.0987C2.34092 11.7254 1.94092 11.032 1.94092 10.2787V5.71872C1.94092 4.97205 2.34092 4.27869 2.98758 3.89869L6.94758 1.61203C7.59425 1.2387 8.39425 1.2387 9.04758 1.61203L13.0076 3.89869C13.6543 4.27869 14.0543 4.96539 14.0543 5.71872Z" stroke-width="1.5" stroke-linecap="round" stroke-linejoin="round"/>
        <path d="M8.00158 7.33321C8.85946 7.33321 9.55491 6.63775 9.55491 5.77987C9.55491 4.92198 8.85946 4.22656 8.00158 4.22656C7.14369 4.22656 6.44824 4.92198 6.44824 5.77987C6.44824 6.63775 7.14369 7.33321 8.00158 7.33321Z" stroke-width="1.5" stroke-linecap="round" stroke-linejoin="round"/>
        <path d="M10.6668 11.1069C10.6668 9.90689 9.4735 8.93359 8.00016 8.93359C6.52683 8.93359 5.3335 9.90689 5.3335 11.1069" stroke-width="1.5" stroke-linecap="round" stroke-linejoin="round"/>
    </symbol>

    <symbol id="tag" viewBox="0 0 16 16" fill="none" xmlns="http://www.w3.org/2000/svg">
        <path d="M2.77977 10.1986L5.79977 13.2186C7.03977 14.4586 9.0531 14.4586 10.2998 13.2186L13.2264 10.2919C14.4664 9.0519 14.4664 7.03857 13.2264 5.7919L10.1998 2.77857C9.56643 2.14523 8.6931 1.80523 7.79977 1.8519L4.46643 2.0119C3.1331 2.0719 2.0731 3.1319 2.00643 4.45857L1.84643 7.7919C1.80643 8.6919 2.14643 9.56523 2.77977 10.1986Z" stroke-width="1.5" stroke-linecap="round" stroke-linejoin="round"/>
        <path d="M6.33317 8.0013C7.25365 8.0013 7.99984 7.25511 7.99984 6.33464C7.99984 5.41416 7.25365 4.66797 6.33317 4.66797C5.4127 4.66797 4.6665 5.41416 4.6665 6.33464C4.6665 7.25511 5.4127 8.0013 6.33317 8.0013Z" stroke-width="1.5" stroke-linecap="round"/>
    </symbol>

    <symbol id="medal" viewBox="0 0 16 16" fill="none" xmlns="http://www.w3.org/2000/svg">
        <path d="M8 9.9987C10.4853 9.9987 12.5 8.0586 12.5 5.66536C12.5 3.27213 10.4853 1.33203 8 1.33203C5.51472 1.33203 3.5 3.27213 3.5 5.66536C3.5 8.0586 5.51472 9.9987 8 9.9987Z" stroke-width="1.5" stroke-linecap="round" stroke-linejoin="round"/>
        <path d="M5.01349 9.01453L5.00684 13.9345C5.00684 14.5345 5.42684 14.8279 5.94684 14.5812L7.7335 13.7345C7.88017 13.6612 8.12683 13.6612 8.2735 13.7345L10.0668 14.5812C10.5802 14.8212 11.0068 14.5345 11.0068 13.9345V8.89453" stroke-width="1.5" stroke-linecap="round" stroke-linejoin="round"/>
    </symbol>

    <symbol id="ticket-discount" viewBox="0 0 16 16" fill="none" xmlns="http://www.w3.org/2000/svg">
        <path d="M12.9997 8.33268C12.9997 7.41268 13.7463 6.66602 14.6663 6.66602V5.99935C14.6663 3.33268 13.9997 2.66602 11.333 2.66602H4.66634C1.99967 2.66602 1.33301 3.33268 1.33301 5.99935V6.33268C2.25301 6.33268 2.99967 7.07935 2.99967 7.99935C2.99967 8.91935 2.25301 9.66602 1.33301 9.66602V9.99935C1.33301 12.666 1.99967 13.3327 4.66634 13.3327H11.333C13.9997 13.3327 14.6663 12.666 14.6663 9.99935C13.7463 9.99935 12.9997 9.25268 12.9997 8.33268Z" stroke-linecap="round" stroke-linejoin="round"/>
        <path d="M6 9.83398L10 5.83398" stroke-linecap="round" stroke-linejoin="round"/>
        <path d="M9.99666 9.83333H10.0027" stroke-linecap="round" stroke-linejoin="round"/>
        <path d="M5.99666 6.16732H6.00265" stroke-linecap="round" stroke-linejoin="round"/>
    </symbol>

    <symbol id="coin" viewBox="0 0 25 24" fill="none" xmlns="http://www.w3.org/2000/svg">
        <path d="M18.75 12.6484V16.3484C18.75 19.4684 15.84 21.9984 12.25 21.9984C8.66 21.9984 5.75 19.4684 5.75 16.3484V12.6484C5.75 15.7684 8.66 17.9984 12.25 17.9984C15.84 17.9984 18.75 15.7684 18.75 12.6484Z" stroke-width="2" stroke-linecap="round" stroke-linejoin="round"/>
        <path d="M18.75 7.65C18.75 8.56 18.5 9.4 18.06 10.12C16.99 11.88 14.79 13 12.25 13C9.71 13 7.51 11.88 6.44 10.12C6 9.4 5.75 8.56 5.75 7.65C5.75 6.09 6.47999 4.68 7.64999 3.66C8.82999 2.63 10.45 2 12.25 2C14.05 2 15.67 2.63 16.85 3.65C18.02 4.68 18.75 6.09 18.75 7.65Z" stroke-width="2" stroke-linecap="round" stroke-linejoin="round"/>
        <path d="M18.75 7.65V12.65C18.75 15.77 15.84 18 12.25 18C8.66 18 5.75 15.77 5.75 12.65V7.65C5.75 4.53 8.66 2 12.25 2C14.05 2 15.67 2.63 16.85 3.65C18.02 4.68 18.75 6.09 18.75 7.65Z" stroke-width="2" stroke-linecap="round" stroke-linejoin="round"/>
    </symbol>

    <symbol id="eye-slash" viewBox="0 0 14 14" fill="none" xmlns="http://www.w3.org/2000/svg">
        <path d="M8.47579 5.52461L5.52412 8.47628C5.14495 8.09711 4.91162 7.57794 4.91162 7.00044C4.91162 5.84544 5.84495 4.91211 6.99995 4.91211C7.57745 4.91211 8.09662 5.14544 8.47579 5.52461Z" stroke-linecap="round" stroke-linejoin="round"/>
        <path d="M10.3949 3.36578C9.37407 2.59578 8.20741 2.17578 6.99991 2.17578C4.94074 2.17578 3.02158 3.38911 1.68574 5.48911C1.16074 6.31161 1.16074 7.69411 1.68574 8.51661C2.14658 9.23995 2.68324 9.86411 3.26658 10.3658" stroke-linecap="round" stroke-linejoin="round"/>
        <path d="M4.91162 11.3917C5.57662 11.6717 6.28245 11.8233 6.99995 11.8233C9.05912 11.8233 10.9783 10.61 12.3141 8.51C12.8391 7.6875 12.8391 6.305 12.3141 5.4825C12.1216 5.17917 11.9116 4.89333 11.6958 4.625" stroke-linecap="round" stroke-linejoin="round"/>
        <path d="M9.04734 7.4082C8.89568 8.2307 8.22484 8.90154 7.40234 9.0532" stroke-linecap="round" stroke-linejoin="round"/>
        <path d="M5.524 8.47656L1.1665 12.8341" stroke-linecap="round" stroke-linejoin="round"/>
        <path d="M12.8336 1.16602L8.47607 5.52352" stroke-linecap="round" stroke-linejoin="round"/>
    </symbol>

    <symbol id="edit" viewBox="0 0 17 16" fill="none" xmlns="http://www.w3.org/2000/svg">
        <path d="M7.83203 1.33203H6.4987C3.16536 1.33203 1.83203 2.66536 1.83203 5.9987V9.9987C1.83203 13.332 3.16536 14.6654 6.4987 14.6654H10.4987C13.832 14.6654 15.1654 13.332 15.1654 9.9987V8.66536" stroke-width="1.5" stroke-linecap="round" stroke-linejoin="round"/>
        <path d="M11.1933 2.01155L5.93992 7.26488C5.73992 7.46488 5.53992 7.85822 5.49992 8.14488L5.21325 10.1515C5.10659 10.8782 5.61992 11.3849 6.34659 11.2849L8.35325 10.9982C8.63325 10.9582 9.02659 10.7582 9.23325 10.5582L14.4866 5.30488C15.3933 4.39822 15.8199 3.34488 14.4866 2.01155C13.1533 0.678215 12.0999 1.10488 11.1933 2.01155Z" stroke-width="1.5" stroke-miterlimit="10" stroke-linecap="round" stroke-linejoin="round"/>
        <path d="M10.4414 2.76562C10.8881 4.35896 12.1347 5.60562 13.7347 6.05896" stroke-width="1.5" stroke-miterlimit="10" stroke-linecap="round" stroke-linejoin="round"/>
    </symbol>

    <symbol id="briefcase" viewBox="0 0 18 18" fill="none" xmlns="http://www.w3.org/2000/svg">
        <path d="M6.00011 16.5H12.0001C15.0151 16.5 15.5551 15.2925 15.7126 13.8225L16.2751 7.8225C16.4776 5.9925 15.9526 4.5 12.7501 4.5H5.25011C2.04761 4.5 1.52261 5.9925 1.72511 7.8225L2.28761 13.8225C2.44511 15.2925 2.98511 16.5 6.00011 16.5Z" stroke-miterlimit="10" stroke-linecap="round" stroke-linejoin="round"/>
        <path d="M6 4.5V3.9C6 2.5725 6 1.5 8.4 1.5H9.6C12 1.5 12 2.5725 12 3.9V4.5" stroke-miterlimit="10" stroke-linecap="round" stroke-linejoin="round"/>
        <path d="M10.5 9.75V10.5C10.5 10.5075 10.5 10.5075 10.5 10.515C10.5 11.3325 10.4925 12 9 12C7.515 12 7.5 11.34 7.5 10.5225V9.75C7.5 9 7.5 9 8.25 9H9.75C10.5 9 10.5 9 10.5 9.75Z" stroke-miterlimit="10" stroke-linecap="round" stroke-linejoin="round"/>
        <path d="M16.2375 8.25C14.505 9.51 12.525 10.26 10.5 10.515" stroke-miterlimit="10" stroke-linecap="round" stroke-linejoin="round"/>
        <path d="M1.96484 8.45312C3.65234 9.60813 5.55734 10.3056 7.49984 10.5231" stroke-miterlimit="10" stroke-linecap="round" stroke-linejoin="round"/>
    </symbol>

    <symbol id="folder-add" viewBox="0 0 16 16" fill="none" xmlns="http://www.w3.org/2000/svg">
        <path d="M8.04004 10.9993V7.66602" stroke-miterlimit="10" stroke-linecap="round" stroke-linejoin="round"/>
        <path d="M9.66659 9.33398H6.33325" stroke-miterlimit="10" stroke-linecap="round" stroke-linejoin="round"/>
        <path d="M14.6666 7.33398V11.334C14.6666 14.0007 13.9999 14.6673 11.3333 14.6673H4.66659C1.99992 14.6673 1.33325 14.0007 1.33325 11.334V4.66732C1.33325 2.00065 1.99992 1.33398 4.66659 1.33398H5.66659C6.66659 1.33398 6.88659 1.62732 7.26659 2.13398L8.26659 3.46732C8.51992 3.80065 8.66659 4.00065 9.33325 4.00065H11.3333C13.9999 4.00065 14.6666 4.66732 14.6666 7.33398Z" stroke-miterlimit="10"/>
    </symbol>

    <symbol id="folder-open" viewBox="0 0 18 18" fill="none" xmlns="http://www.w3.org/2000/svg">
        <path d="M16.9867 10.4L16.677 14.0364C16.5608 15.1491 16.4679 16 14.3695 16H4.62835C2.52991 16 2.43699 15.1491 2.32083 14.0364L2.0111 10.4C1.94915 9.79636 2.15048 9.23636 2.51442 8.80727C2.52216 8.8 2.52216 8.8 2.52991 8.79273C2.95579 8.30545 3.59849 8 4.31862 8H14.6792C15.3993 8 16.0343 8.30545 16.4524 8.77818C16.4602 8.78545 16.4679 8.79273 16.4679 8.8C16.8473 9.22909 17.0564 9.78909 16.9867 10.4Z" stroke-width="1.5" stroke-miterlimit="10"/>
        <path d="M3 8.97034V5.15148C3 2.6303 3.65038 2 6.25191 2H7.22366C8.19541 2 8.4173 2.28178 8.78458 2.75636L9.75633 4.01695C10.0012 4.32839 10.1466 4.52119 10.7969 4.52119H12.7481C15.3496 4.52119 16 5.15148 16 7.67267V9" stroke-width="1.5" stroke-miterlimit="10" stroke-linecap="round" stroke-linejoin="round"/>
        <path d="M7 13H11" stroke-width="1.5" stroke-miterlimit="10" stroke-linecap="round" stroke-linejoin="round"/>
    </symbol>

    <symbol id="user" viewBox="0 0 19 18" fill="none" xmlns="http://www.w3.org/2000/svg">
        <path d="M9.50146 9C11.5725 9 13.2515 7.32107 13.2515 5.25C13.2515 3.17893 11.5725 1.5 9.50146 1.5C7.4304 1.5 5.75146 3.17893 5.75146 5.25C5.75146 7.32107 7.4304 9 9.50146 9Z" stroke-width="1.5" stroke-linecap="round" stroke-linejoin="round"/>
        <path d="M15.9426 16.5C15.9426 13.5975 13.0551 11.25 9.50011 11.25C5.94511 11.25 3.05762 13.5975 3.05762 16.5" stroke-width="1.5" stroke-linecap="round" stroke-linejoin="round"/>
    </symbol>

    <symbol id="book-square" viewBox="0 0 16 14" fill="none" xmlns="http://www.w3.org/2000/svg">
        <path d="M14.3801 10.2712V2.58121C14.3801 1.81121 13.7601 1.25122 13.0001 1.31122H12.9601C11.6201 1.42122 9.59013 2.11123 8.45013 2.82123L8.34015 2.89124C8.16015 3.00124 7.8501 3.00124 7.6601 2.89124L7.50012 2.79123C6.37012 2.08123 4.34012 1.41121 3.00012 1.30121C2.24012 1.24121 1.62012 1.81123 1.62012 2.57123V10.2712C1.62012 10.8812 2.1201 11.4612 2.7301 11.5312L2.9101 11.5612C4.2901 11.7412 6.43015 12.4512 7.65015 13.1212L7.68011 13.1312C7.85011 13.2312 8.1301 13.2312 8.2901 13.1312C9.5101 12.4512 11.6601 11.7512 13.0501 11.5612L13.2601 11.5312C13.8801 11.4612 14.3801 10.8912 14.3801 10.2712Z" stroke-width="1.5" stroke-linecap="round" stroke-linejoin="round"/>
        <path d="M8 3.10156V12.6616" stroke-width="1.5" stroke-linecap="round" stroke-linejoin="round"/>
    </symbol>

    <symbol id="moon" viewBox="0 0 12 12" fill="none" xmlns="http://www.w3.org/2000/svg">
        <path d="M1.01504 6.21047C1.19504 8.78547 3.38004 10.8805 5.99504 10.9955C7.84004 11.0755 9.49004 10.2155 10.48 8.86047C10.89 8.30547 10.67 7.93547 9.98504 8.06047C9.65004 8.12047 9.30504 8.14547 8.94504 8.13047C6.50004 8.03047 4.50004 5.98547 4.49004 3.57047C4.48504 2.92047 4.62004 2.30547 4.86504 1.74547C5.13504 1.12547 4.81004 0.830469 4.18504 1.09547C2.20504 1.93047 0.850045 3.92547 1.01504 6.21047Z" stroke-linecap="round" stroke-linejoin="round"/>
    </symbol>

    <symbol id="favorite-chart" viewBox="0 0 16 16" fill="none" xmlns="http://www.w3.org/2000/svg">
        <path d="M14.6668 8.66536V5.9987C14.6668 2.66536 13.3335 1.33203 10.0002 1.33203H6.00016C2.66683 1.33203 1.3335 2.66536 1.3335 5.9987V9.9987C1.3335 13.332 2.66683 14.6654 6.00016 14.6654H8.66683" stroke-width="1.5" stroke-linecap="round" stroke-linejoin="round"/>
        <path d="M4.88672 9.65985L6.47339 7.59984C6.70006 7.30651 7.12006 7.25318 7.41339 7.47985L8.6334 8.43985C8.92674 8.66652 9.34672 8.61318 9.57338 8.32652L11.1134 6.33984" stroke-width="1.5" stroke-linecap="round" stroke-linejoin="round"/>
        <path d="M12.9866 10.545L13.1733 10.925C13.2666 11.1117 13.5 11.285 13.7066 11.325L13.96 11.365C14.72 11.4917 14.9 12.0517 14.3533 12.605L14.12 12.8383C13.9666 12.9983 13.88 13.305 13.9267 13.5183L13.96 13.6583C14.1666 14.5783 13.68 14.9317 12.88 14.4517L12.7066 14.3517C12.5 14.2317 12.1666 14.2317 11.96 14.3517L11.7866 14.4517C10.98 14.9383 10.4933 14.5783 10.7066 13.6583L10.74 13.5183C10.7866 13.305 10.7 12.9983 10.5466 12.8383L10.3133 12.605C9.76664 12.0517 9.94664 11.4917 10.7066 11.365L10.96 11.325C11.16 11.2917 11.4 11.1117 11.4933 10.925L11.68 10.545C12.04 9.81833 12.6266 9.81833 12.9866 10.545Z" stroke-width="1.5" stroke-linecap="round" stroke-linejoin="round"/>
    </symbol>


    <symbol id="brush" viewBox="0 0 18 18" fill="none" xmlns="http://www.w3.org/2000/svg">
        <path d="M16.3576 2.9554C15.2026 5.8354 12.3076 9.7504 9.88514 11.6929L8.40764 12.8779C8.22014 13.0129 8.03264 13.1329 7.82264 13.2154C7.82264 13.0804 7.81514 12.9304 7.79264 12.7879C7.71014 12.1579 7.42514 11.5729 6.92264 11.0704C6.41264 10.5604 5.79014 10.2604 5.15264 10.1779C5.00264 10.1704 4.85264 10.1554 4.70264 10.1704C4.78514 9.9379 4.91264 9.7204 5.07014 9.5404L6.24014 8.0629C8.17514 5.6404 12.1051 2.7304 14.9776 1.5829C15.4201 1.4179 15.8476 1.5379 16.1176 1.8154C16.4026 2.0929 16.5376 2.5204 16.3576 2.9554Z" stroke-width="1.5" stroke-linecap="round" stroke-linejoin="round"/>
        <path d="M7.82246 13.2141C7.82246 14.0391 7.50746 14.8266 6.91496 15.4266C6.45746 15.8841 5.83496 16.1991 5.09246 16.2966L3.24746 16.4991C2.24246 16.6116 1.37996 15.7566 1.49996 14.7366L1.70246 12.8916C1.88246 11.2491 3.25496 10.1991 4.70996 10.1691C4.85996 10.1616 5.01746 10.1691 5.15996 10.1766C5.79746 10.2591 6.41996 10.5516 6.92996 11.0691C7.43246 11.5716 7.71746 12.1566 7.79996 12.7866C7.80746 12.9291 7.82246 13.0716 7.82246 13.2141Z" stroke-width="1.5" stroke-linecap="round" stroke-linejoin="round"/>
        <path d="M10.6798 10.8522C10.6798 8.89469 9.08982 7.30469 7.13232 7.30469" stroke-width="1.5" stroke-linecap="round" stroke-linejoin="round"/>
    </symbol>

    <symbol id="bag" viewBox="0 0 18 19" fill="none" xmlns="http://www.w3.org/2000/svg">
        <path d="M6.60709 2L3.89209 4.7225" stroke-width="1.5" stroke-miterlimit="10" stroke-linecap="round" stroke-linejoin="round"/>
        <path d="M11.3921 2L14.1071 4.7225" stroke-width="1.5" stroke-miterlimit="10" stroke-linecap="round" stroke-linejoin="round"/>
        <path d="M1.5 6.38672C1.5 4.99922 2.2425 4.88672 3.165 4.88672H14.835C15.7575 4.88672 16.5 4.99922 16.5 6.38672C16.5 7.99922 15.7575 7.88672 14.835 7.88672H3.165C2.2425 7.88672 1.5 7.99922 1.5 6.38672Z" stroke-width="1.5"/>
        <path d="M9 11V13.6625" stroke-width="1.5" stroke-linecap="round"/>
        <path d="M10.2744 12.332L7.61191 12.332" stroke-width="1.5" stroke-linecap="round"/>
        <path d="M2.625 8L3.6825 14.48C3.9225 15.935 4.5 17 6.645 17H11.1675C13.5 17 13.845 15.98 14.115 14.57L15.375 8" stroke-width="1.5" stroke-linecap="round"/>
    </symbol>

    <symbol id="warning" viewBox="0 0 14 14" fill="none" xmlns="http://www.w3.org/2000/svg">
        <path d="M7 4.52148V7.58398" stroke-linecap="round" stroke-linejoin="round"/>
        <path d="M12.2965 5.00437V8.99435C12.2965 9.64768 11.9465 10.2544 11.3806 10.5869L7.91562 12.5877C7.34979 12.9144 6.64977 12.9144 6.0781 12.5877L2.6131 10.5869C2.04727 10.2602 1.69727 9.65352 1.69727 8.99435V5.00437C1.69727 4.35104 2.04727 3.74434 2.6131 3.41184L6.0781 1.41102C6.64394 1.08435 7.34395 1.08435 7.91562 1.41102L11.3806 3.41184C11.9465 3.74434 12.2965 4.3452 12.2965 5.00437Z" stroke-linecap="round" stroke-linejoin="round"/>
        <path d="M7 9.44922V9.50755" stroke-linecap="round" stroke-linejoin="round"/>
    </symbol>

    <symbol id="volume-on" viewBox="0 0 18 18" fill="none" xmlns="http://www.w3.org/2000/svg">
        <path d="M2.49756 7.50033V10.5003C2.49756 12.0003 3.24756 12.7503 4.74756 12.7503H5.82006C6.09756 12.7503 6.37506 12.8328 6.61506 12.9753L8.80506 14.3478C10.6951 15.5328 12.2476 14.6703 12.2476 12.4428V5.55783C12.2476 3.32283 10.6951 2.46783 8.80506 3.65283L6.61506 5.02533C6.37506 5.16783 6.09756 5.25033 5.82006 5.25033H4.74756C3.24756 5.25033 2.49756 6.00033 2.49756 7.50033Z" stroke-width="1.5"/>
        <path d="M14.4976 6C15.8326 7.7775 15.8326 10.2225 14.4976 12" stroke-width="1.5" stroke-linecap="round" stroke-linejoin="round"/>
    </symbol>

    <symbol id="seen" viewBox="0 0 16 17" fill="none" xmlns="http://www.w3.org/2000/svg">
        <path d="M11.9999 4.5L4.66659 11.8333L1.33325 8.5" stroke-width="1.5" stroke-linecap="round" stroke-linejoin="round"/>
        <path d="M14.6667 7.16602L9.66675 12.166L8.66675 11.166" stroke-width="1.5" stroke-linecap="round" stroke-linejoin="round"/>
    </symbol>

    <symbol id="more" viewBox="0 0 16 16" xmlns="http://www.w3.org/2000/svg">
        <path d="M3.33333 6.66602C2.6 6.66602 2 7.26602 2 7.99935C2 8.73268 2.6 9.33268 3.33333 9.33268C4.06667 9.33268 4.66667 8.73268 4.66667 7.99935C4.66667 7.26602 4.06667 6.66602 3.33333 6.66602Z" />
        <path d="M12.6666 6.66602C11.9333 6.66602 11.3333 7.26602 11.3333 7.99935C11.3333 8.73268 11.9333 9.33268 12.6666 9.33268C13.3999 9.33268 13.9999 8.73268 13.9999 7.99935C13.9999 7.26602 13.3999 6.66602 12.6666 6.66602Z" />
        <path d="M8.00008 6.66602C7.26675 6.66602 6.66675 7.26602 6.66675 7.99935C6.66675 8.73268 7.26675 9.33268 8.00008 9.33268C8.73341 9.33268 9.33341 8.73268 9.33341 7.99935C9.33341 7.26602 8.73341 6.66602 8.00008 6.66602Z" />
    </symbol>

    <symbol id="document" viewBox="0 0 19 19" fill="none" xmlns="http://www.w3.org/2000/svg">
        <path d="M17 8V11.75C17 15.5 15.5 17 11.75 17H7.25C3.5 17 2 15.5 2 11.75V7.25C2 3.5 3.5 2 7.25 2H11" stroke-width="1.5" stroke-linecap="round" stroke-linejoin="round"/>
        <path d="M17 8H14C11.75 8 11 7.25 11 5V2L17 8Z" stroke-width="1.5" stroke-linecap="round" stroke-linejoin="round"/>
    </symbol>

    <symbol id="document-download" viewBox="0 0 18 18" fill="none" xmlns="http://www.w3.org/2000/svg">
        <path d="M6.75 8.25V12.75L8.25 11.25" stroke-width="1.5" stroke-linecap="round" stroke-linejoin="round"/>
        <path d="M6.75 12.75L5.25 11.25" stroke-width="1.5" stroke-linecap="round" stroke-linejoin="round"/>
        <path d="M16.5 7.5V11.25C16.5 15 15 16.5 11.25 16.5H6.75C3 16.5 1.5 15 1.5 11.25V6.75C1.5 3 3 1.5 6.75 1.5H10.5" stroke-width="1.5" stroke-linecap="round" stroke-linejoin="round"/>
        <path d="M16.5 7.5H13.5C11.25 7.5 10.5 6.75 10.5 4.5V1.5L16.5 7.5Z" stroke-width="1.5" stroke-linecap="round" stroke-linejoin="round"/>
    </symbol>

    <symbol id="info-circle" viewBox="0 0 24 24" fill="none" xmlns="http://www.w3.org/2000/svg">
        <path d="M12 22C17.5 22 22 17.5 22 12C22 6.5 17.5 2 12 2C6.5 2 2 6.5 2 12C2 17.5 6.5 22 12 22Z" stroke-width="2" stroke-linecap="round" stroke-linejoin="round"/>
        <path d="M12 8V13" stroke-width="2" stroke-linecap="round" stroke-linejoin="round"/>
        <path d="M11.9941 16H12.0031" stroke-width="2" stroke-linecap="round" stroke-linejoin="round"/>
    </symbol>

    <symbol id="settings" viewBox="0 0 16 15" fill="none" xmlns="http://www.w3.org/2000/svg">
        <path d="M14.0002 2.5H9.3335" stroke-width="2" stroke-linecap="round" stroke-linejoin="round"/>
        <path d="M6.66667 2.5H2" stroke-width="2" stroke-linecap="round" stroke-linejoin="round"/>
        <path d="M14 7.5H8" stroke-width="2" stroke-linecap="round" stroke-linejoin="round"/>
        <path d="M5.33333 7.5H2" stroke-width="2" stroke-linecap="round" stroke-linejoin="round"/>
        <path d="M13.9998 12.5H10.6665" stroke-width="2" stroke-linecap="round" stroke-linejoin="round"/>
        <path d="M8 12.5H2" stroke-width="2" stroke-linecap="round" stroke-linejoin="round"/>
        <path d="M9.3335 1.25V3.75" stroke-width="2" stroke-linecap="round" stroke-linejoin="round"/>
        <path d="M5.3335 6.25V8.75" stroke-width="2" stroke-linecap="round" stroke-linejoin="round"/>
        <path d="M10.6665 11.25V13.75" stroke-width="2" stroke-linecap="round" stroke-linejoin="round"/>
    </symbol>

    <symbol id="personalcard" viewBox="0 0 24 24" fill="none" xmlns="http://www.w3.org/2000/svg">
        <path d="M17 21H7C3 21 2 20 2 16V8C2 4 3 3 7 3H17C21 3 22 4 22 8V16C22 20 21 21 17 21Z" stroke-width="2" stroke-linecap="round" stroke-linejoin="round"/>
        <path d="M14 8H19" stroke-width="2" stroke-linecap="round" stroke-linejoin="round"/>
        <path d="M15 12H19" stroke-width="2" stroke-linecap="round" stroke-linejoin="round"/>
        <path d="M17 16H19" stroke-width="2" stroke-linecap="round" stroke-linejoin="round"/>
        <path d="M8.49994 11.2919C9.49958 11.2919 10.3099 10.4815 10.3099 9.48187C10.3099 8.48224 9.49958 7.67188 8.49994 7.67188C7.50031 7.67188 6.68994 8.48224 6.68994 9.48187C6.68994 10.4815 7.50031 11.2919 8.49994 11.2919Z" stroke-width="2" stroke-linecap="round" stroke-linejoin="round"/>
        <path d="M12 16.3278C11.86 14.8778 10.71 13.7378 9.26 13.6078C8.76 13.5578 8.25 13.5578 7.74 13.6078C6.29 13.7478 5.14 14.8778 5 16.3278" stroke-width="2" stroke-linecap="round" stroke-linejoin="round"/>
    </symbol>

    <symbol id="settings-2" viewBox="0 0 18 18" fill="none" xmlns="http://www.w3.org/2000/svg">
        <path d="M9 11.25C10.2426 11.25 11.25 10.2426 11.25 9C11.25 7.75736 10.2426 6.75 9 6.75C7.75736 6.75 6.75 7.75736 6.75 9C6.75 10.2426 7.75736 11.25 9 11.25Z" stroke-width="1.5" stroke-miterlimit="10" stroke-linecap="round" stroke-linejoin="round"/>
        <path d="M1.5 9.66105V8.34105C1.5 7.56105 2.1375 6.91605 2.925 6.91605C4.2825 6.91605 4.8375 5.95605 4.155 4.77855C3.765 4.10355 3.9975 3.22605 4.68 2.83605L5.9775 2.09355C6.57 1.74105 7.335 1.95105 7.6875 2.54355L7.77 2.68605C8.445 3.86355 9.555 3.86355 10.2375 2.68605L10.32 2.54355C10.6725 1.95105 11.4375 1.74105 12.03 2.09355L13.3275 2.83605C14.01 3.22605 14.2425 4.10355 13.8525 4.77855C13.17 5.95605 13.725 6.91605 15.0825 6.91605C15.8625 6.91605 16.5075 7.55355 16.5075 8.34105V9.66105C16.5075 10.4411 15.87 11.0861 15.0825 11.0861C13.725 11.0861 13.17 12.0461 13.8525 13.2236C14.2425 13.9061 14.01 14.7761 13.3275 15.1661L12.03 15.9086C11.4375 16.2611 10.6725 16.0511 10.32 15.4586L10.2375 15.3161C9.5625 14.1386 8.4525 14.1386 7.77 15.3161L7.6875 15.4586C7.335 16.0511 6.57 16.2611 5.9775 15.9086L4.68 15.1661C3.9975 14.7761 3.765 13.8986 4.155 13.2236C4.8375 12.0461 4.2825 11.0861 2.925 11.0861C2.1375 11.0861 1.5 10.4411 1.5 9.66105Z" stroke-width="1.5" stroke-miterlimit="10" stroke-linecap="round" stroke-linejoin="round"/>
    </symbol>

    <symbol id="eye-slash" viewBox="0 0 19 18" fill="none" xmlns="http://www.w3.org/2000/svg">
        <path d="M11.3974 7.10391L7.60244 10.8989C7.11494 10.4114 6.81494 9.74391 6.81494 9.00141C6.81494 7.51641 8.01494 6.31641 9.49994 6.31641C10.2424 6.31641 10.9099 6.61641 11.3974 7.10391Z" stroke-width="1.5" stroke-linecap="round" stroke-linejoin="round"/>
        <path d="M13.8649 4.32687C12.5524 3.33687 11.0524 2.79688 9.49988 2.79688C6.85238 2.79688 4.38488 4.35687 2.66738 7.05687C1.99238 8.11437 1.99238 9.89188 2.66738 10.9494C3.25988 11.8794 3.94988 12.6819 4.69988 13.3269" stroke-width="1.5" stroke-linecap="round" stroke-linejoin="round"/>
        <path d="M6.81494 14.6492C7.66994 15.0092 8.57744 15.2042 9.49994 15.2042C12.1474 15.2042 14.6149 13.6442 16.3324 10.9442C17.0074 9.88672 17.0074 8.10922 16.3324 7.05172C16.0849 6.66172 15.8149 6.29422 15.5374 5.94922" stroke-width="1.5" stroke-linecap="round" stroke-linejoin="round"/>
        <path d="M12.1326 9.52344C11.9376 10.5809 11.0751 11.4434 10.0176 11.6384" stroke-width="1.5" stroke-linecap="round" stroke-linejoin="round"/>
        <path d="M7.6025 10.8984L2 16.5009" stroke-width="1.5" stroke-linecap="round" stroke-linejoin="round"/>
        <path d="M17 1.5L11.3975 7.1025" stroke-width="1.5" stroke-linecap="round" stroke-linejoin="round"/>
    </symbol>

    <symbol id="shapes" viewBox="0 0 18 19" fill="none" xmlns="http://www.w3.org/2000/svg">
        <path d="M12.7275 9.6875V13.0625C12.7275 15.875 11.6025 17 8.79004 17H5.41504C2.60254 17 1.47754 15.875 1.47754 13.0625V9.6875C1.47754 6.875 2.60254 5.75 5.41504 5.75H8.79004C11.6025 5.75 12.7275 6.875 12.7275 9.6875Z" stroke-width="1.5" stroke-linecap="round" stroke-linejoin="round"/>
        <path d="M16.4775 6.125C16.4775 8.2775 14.835 10.04 12.7275 10.2275V9.6875C12.7275 6.875 11.6025 5.75 8.79 5.75H8.25C8.4375 3.6425 10.2 2 12.3525 2C14.445 2 16.17 3.5525 16.4325 5.5775C16.4625 5.75 16.4775 5.9375 16.4775 6.125Z" stroke-width="1.5" stroke-linecap="round" stroke-linejoin="round"/>
    </symbol>

    <symbol id="microphone" viewBox="0 0 18 18" fill="none" xmlns="http://www.w3.org/2000/svg">
        <path d="M9 11.625C10.6575 11.625 12 10.2825 12 8.625V4.5C12 2.8425 10.6575 1.5 9 1.5C7.3425 1.5 6 2.8425 6 4.5V8.625C6 10.2825 7.3425 11.625 9 11.625Z" stroke-linecap="round" stroke-linejoin="round"/>
        <path d="M3.26245 7.23828V8.51328C3.26245 11.6783 5.83495 14.2508 8.99995 14.2508C12.165 14.2508 14.7375 11.6783 14.7375 8.51328V7.23828" stroke-linecap="round" stroke-linejoin="round"/>
        <path d="M7.95752 4.82234C8.63252 4.57484 9.36752 4.57484 10.0425 4.82234" stroke-linecap="round" stroke-linejoin="round"/>
        <path d="M8.3999 6.41273C8.7974 6.30773 9.2099 6.30773 9.6074 6.41273" stroke-linecap="round" stroke-linejoin="round"/>
        <path d="M9 14.25V16.5" stroke-linecap="round" stroke-linejoin="round"/>
    </symbol>

    <symbol id="play" viewBox="0 0 18 18" xmlns="http://www.w3.org/2000/svg">
        <path d="M6.01053 2.83047C5.01058 2.24226 3.75 2.96324 3.75 4.12337V13.8781C3.75 15.0382 5.01058 15.7592 6.01053 15.171L14.3021 10.2936C15.288 9.71367 15.288 8.28782 14.3021 7.70784L6.01053 2.83047Z" />
    </symbol>

    <symbol id="empty-wallet" viewBox="0 0 16 16" fill="none" xmlns="http://www.w3.org/2000/svg">
        <path d="M12.0265 9.03267C11.7465 9.30601 11.5865 9.69934 11.6265 10.1193C11.6865 10.8393 12.3465 11.366 13.0665 11.366H14.3332V12.1593C14.3332 13.5393 13.2065 14.666 11.8265 14.666H4.17317C2.79317 14.666 1.6665 13.5393 1.6665 12.1593V7.67269C1.6665 6.29269 2.79317 5.16602 4.17317 5.16602H11.8265C13.2065 5.16602 14.3332 6.29269 14.3332 7.67269V8.63269H12.9865C12.6132 8.63269 12.2732 8.77934 12.0265 9.03267Z" stroke-width="1.5" stroke-linecap="round" stroke-linejoin="round"/>
        <path d="M1.6665 8.27288V5.22625C1.6665 4.43291 2.15317 3.72622 2.89317 3.44622L8.1865 1.44622C9.01317 1.13289 9.89984 1.74624 9.89984 2.6329V5.16623" stroke-width="1.5" stroke-linecap="round" stroke-linejoin="round"/>
        <path d="M15.039 9.31278V10.6862C15.039 11.0528 14.7457 11.3528 14.3724 11.3661H13.0657C12.3457 11.3661 11.6857 10.8395 11.6257 10.1195C11.5857 9.69947 11.7457 9.30613 12.0257 9.0328C12.2724 8.77946 12.6124 8.63281 12.9857 8.63281H14.3724C14.7457 8.64615 15.039 8.94612 15.039 9.31278Z" stroke-width="1.5" stroke-linecap="round" stroke-linejoin="round"/>
        <path d="M4.6665 8H9.33317" stroke-width="1.5" stroke-linecap="round" stroke-linejoin="round"/>
    </symbol>

    <symbol id="simcard" viewBox="0 0 18 19" fill="none" xmlns="http://www.w3.org/2000/svg">
        <path d="M14.655 5.40529L12.3525 3.10278C11.6475 2.39778 10.695 2.00781 9.69749 2.00781H6C3.75 2.00781 2.25 3.50781 2.25 5.75781V13.2578C2.25 15.5078 3.75 17.0078 6 17.0078H12C14.25 17.0078 15.75 15.5078 15.75 13.2578V8.06032C15.75 7.05532 15.3525 6.10279 14.655 5.40529Z" stroke-width="1.5" stroke-linecap="round" stroke-linejoin="round"/>
        <path d="M7.125 11L5.625 12.5L7.125 14" stroke-width="1.5" stroke-linecap="round" stroke-linejoin="round"/>
        <path d="M10.875 11L12.375 12.5L10.875 14" stroke-width="1.5" stroke-linecap="round" stroke-linejoin="round"/>
    </symbol>

    <symbol id="camera" viewBox="0 0 16 16" fill="none" xmlns="http://www.w3.org/2000/svg">
        <path d="M4.50662 14.6654H11.4933C13.3333 14.6654 14.0666 13.5387 14.1533 12.1654L14.4999 6.6587C14.5933 5.2187 13.4466 3.9987 11.9999 3.9987C11.5933 3.9987 11.2199 3.76536 11.0333 3.40536L10.5533 2.4387C10.2466 1.83203 9.44662 1.33203 8.76662 1.33203H7.23995C6.55328 1.33203 5.75328 1.83203 5.44662 2.4387L4.96662 3.40536C4.77995 3.76536 4.40662 3.9987 3.99995 3.9987C2.55328 3.9987 1.40662 5.2187 1.49995 6.6587L1.84662 12.1654C1.92662 13.5387 2.66662 14.6654 4.50662 14.6654Z" stroke-width="1.5" stroke-linecap="round" stroke-linejoin="round"/>
        <path d="M7 5.33203H9" stroke-width="1.5" stroke-linecap="round" stroke-linejoin="round"/>
        <path d="M8.00016 12.0013C9.1935 12.0013 10.1668 11.028 10.1668 9.83464C10.1668 8.6413 9.1935 7.66797 8.00016 7.66797C6.80683 7.66797 5.8335 8.6413 5.8335 9.83464C5.8335 11.028 6.80683 12.0013 8.00016 12.0013Z" stroke-width="1.5" stroke-linecap="round" stroke-linejoin="round"/>
    </symbol>


    <symbol id="wallet-add" viewBox="0 0 24 25" fill="none" xmlns="http://www.w3.org/2000/svg">
        <path d="M14.2617 15.9375H9.26172" stroke-width="1.5" stroke-miterlimit="10" stroke-linecap="round" stroke-linejoin="round"/>
        <path d="M11.7617 13.498V18.498" stroke-width="1.5" stroke-miterlimit="10" stroke-linecap="round" stroke-linejoin="round"/>
        <path d="M12.66 3.01814L12.63 3.08814L9.72996 9.81814H6.87996C6.19996 9.81814 5.54996 9.95814 4.95996 10.2081L6.70996 6.02814L6.74996 5.92814L6.81996 5.76814C6.83996 5.70814 6.85996 5.64814 6.88996 5.59814C8.19996 2.56814 9.67996 1.87814 12.66 3.01814Z" stroke-width="1.5" stroke-linecap="round" stroke-linejoin="round"/>
        <path d="M18.05 10.0176C17.6 9.87758 17.12 9.81758 16.64 9.81758H9.72998L12.63 3.08758L12.66 3.01758C12.81 3.06758 12.95 3.13758 13.1 3.19758L15.31 4.12758C16.54 4.63758 17.4 5.16758 17.92 5.80758C18.02 5.92758 18.1 6.03758 18.17 6.16758C18.26 6.30758 18.33 6.44758 18.37 6.59758C18.41 6.68758 18.44 6.77758 18.46 6.85758C18.73 7.69758 18.57 8.72758 18.05 10.0176Z" stroke-width="1.5" stroke-linecap="round" stroke-linejoin="round"/>
        <path d="M21.5217 14.6984V16.6484C21.5217 16.8484 21.5117 17.0484 21.5017 17.2484C21.3117 20.7384 19.3617 22.4984 15.6617 22.4984H7.86172C7.62172 22.4984 7.38172 22.4784 7.15172 22.4484C3.97172 22.2384 2.27172 20.5384 2.06172 17.3584C2.03172 17.1284 2.01172 16.8884 2.01172 16.6484V14.6984C2.01172 12.6884 3.23172 10.9584 4.97172 10.2084C5.57172 9.95836 6.21172 9.81836 6.89172 9.81836H16.6517C17.1417 9.81836 17.6217 9.88836 18.0617 10.0184C20.0517 10.6284 21.5217 12.4884 21.5217 14.6984Z" stroke-width="1.5" stroke-linecap="round" stroke-linejoin="round"/>
        <path d="M6.71 6.02734L4.96 10.2073C3.22 10.9573 2 12.6873 2 14.6973V11.7673C2 8.92734 4.02 6.55734 6.71 6.02734Z" stroke-width="1.5" stroke-linecap="round" stroke-linejoin="round"/>
        <path d="M21.5186 11.7677V14.6977C21.5186 12.4977 20.0586 10.6277 18.0586 10.0277C18.5786 8.72766 18.7286 7.70766 18.4786 6.85766C18.4586 6.76766 18.4286 6.67766 18.3886 6.59766C20.2486 7.55766 21.5186 9.52766 21.5186 11.7677Z" stroke-width="1.5" stroke-linecap="round" stroke-linejoin="round"/>
    </symbol>

    <symbol id="money-send" viewBox="0 0 24 25" fill="none" xmlns="http://www.w3.org/2000/svg">
        <path d="M9.5 14.2502C9.5 15.2202 10.25 16.0002 11.17 16.0002H13.05C13.85 16.0002 14.5 15.3202 14.5 14.4702C14.5 13.5602 14.1 13.2302 13.51 13.0202L10.5 11.9702C9.91 11.7602 9.51001 11.4402 9.51001 10.5202C9.51001 9.68023 10.16 8.99023 10.96 8.99023H12.84C13.76 8.99023 14.51 9.77023 14.51 10.7402" stroke-width="1.5" stroke-linecap="round" stroke-linejoin="round"/>
        <path d="M12 8V17" stroke-width="1.5" stroke-linecap="round" stroke-linejoin="round"/>
        <path d="M22 12.5C22 18.02 17.52 22.5 12 22.5C6.48 22.5 2 18.02 2 12.5C2 6.98 6.48 2.5 12 2.5" stroke-width="1.5" stroke-linecap="round" stroke-linejoin="round"/>
        <path d="M22 6.5V2.5H18" stroke-width="1.5" stroke-linecap="round" stroke-linejoin="round"/>
        <path d="M17 7.5L22 2.5" stroke-width="1.5" stroke-linecap="round" stroke-linejoin="round"/>
    </symbol>

    <symbol id="money-change" viewBox="0 0 24 24" fill="none" xmlns="http://www.w3.org/2000/svg">
        <path d="M2 11V9C2 5.5 4 4 7 4H17C20 4 22 5.5 22 9V15C22 18.5 20 20 17 20H12" stroke-width="1.5" stroke-miterlimit="10" stroke-linecap="round" stroke-linejoin="round"/>
        <path d="M12 14.5C13.3807 14.5 14.5 13.3807 14.5 12C14.5 10.6193 13.3807 9.5 12 9.5C10.6193 9.5 9.5 10.6193 9.5 12C9.5 13.3807 10.6193 14.5 12 14.5Z" stroke-width="1.5" stroke-miterlimit="10" stroke-linecap="round" stroke-linejoin="round"/>
        <path d="M18.5 9.5V14.5" stroke-width="1.5" stroke-miterlimit="10" stroke-linecap="round" stroke-linejoin="round"/>
        <path d="M2 15.5H7.34003C7.98003 15.5 8.5 16.02 8.5 16.66V17.94" stroke-width="1.5" stroke-miterlimit="10" stroke-linecap="round" stroke-linejoin="round"/>
        <path d="M3.21997 14.2793L2 15.4993L3.21997 16.7192" sstroke-width="1.5" stroke-miterlimit="10" stroke-linecap="round" stroke-linejoin="round"/>
        <path d="M8.5 20.7798H3.15997C2.51997 20.7798 2 20.2598 2 19.6198V18.3398" stroke-width="1.5" stroke-miterlimit="10" stroke-linecap="round" stroke-linejoin="round"/>
        <path d="M7.28125 21.9986L8.50122 20.7786L7.28125 19.5586" stroke-width="1.5" stroke-miterlimit="10" stroke-linecap="round" stroke-linejoin="round"/>
    </symbol>

    <symbol id="calendar" viewBox="0 0 18 18" fill="none" xmlns="http://www.w3.org/2000/svg">
        <path d="M6 1.5V3.75" stroke-width="1.5" stroke-miterlimit="10" stroke-linecap="round" stroke-linejoin="round"/>
        <path d="M12 1.5V3.75" stroke-width="1.5" stroke-miterlimit="10" stroke-linecap="round" stroke-linejoin="round"/>
        <path d="M2.625 6.81836H15.375" stroke-width="1.5" stroke-miterlimit="10" stroke-linecap="round" stroke-linejoin="round"/>
        <path d="M15.75 6.375V12.75C15.75 15 14.625 16.5 12 16.5H6C3.375 16.5 2.25 15 2.25 12.75V6.375C2.25 4.125 3.375 2.625 6 2.625H12C14.625 2.625 15.75 4.125 15.75 6.375Z" stroke-width="1.5" stroke-miterlimit="10" stroke-linecap="round" stroke-linejoin="round"/>
        <path d="M11.7713 10.2754H11.778" stroke-width="1.5" stroke-linecap="round" stroke-linejoin="round"/>
        <path d="M11.7713 12.5254H11.778" stroke-width="1.5" stroke-linecap="round" stroke-linejoin="round"/>
        <path d="M8.99686 10.2754H9.00359" stroke-width="1.5" stroke-linecap="round" stroke-linejoin="round"/>
        <path d="M8.99686 12.5254H9.00359" stroke-width="1.5" stroke-linecap="round" stroke-linejoin="round"/>
        <path d="M6.22049 10.2754H6.22723" stroke-width="1.5" stroke-linecap="round" stroke-linejoin="round"/>
        <path d="M6.22049 12.5254H6.22723" stroke-width="1.5" stroke-linecap="round" stroke-linejoin="round"/>
    </symbol>


    <!-- Arrows -->
    <symbol id="arrow-down" viewBox="0 0 16 16" fill="none" xmlns="http://www.w3.org/2000/svg">
        <path d="M2 5L8 11L14 5" stroke-width="2" stroke-linecap="round" stroke-linejoin="round"/>
    </symbol>

    <symbol id="arrow-up" viewBox="0 0 13 12" fill="none" xmlns="http://www.w3.org/2000/svg">
        <path d="M11.5 3.5L7.25 7.75L4.75 5.25L1.5 8.5M11.5 3.5H8.5M11.5 3.5V6.5" stroke-linecap="round" stroke-linejoin="round"/>
    </symbol>

    <symbol id="arrow-right" viewBox="0 0 12 12" fill="none" xmlns="http://www.w3.org/2000/svg">
        <path d="M4 10.5L8 6L4 1.5" stroke-width="1.5" stroke-linecap="round" stroke-linejoin="round"/>
    </symbol>

    <symbol id="arrow-left-sm" viewBox="0 0 14 14" xmlns="http://www.w3.org/2000/svg">
        <path fill-rule="evenodd" clip-rule="evenodd" d="M10.3267 0.756282C9.96225 0.414573 9.3713 0.414573 9.00681 0.756281L9.58471 1.29807C9.0068 0.756285 9.00687 0.756227 9.00681 0.756281L8.94554 0.813874L8.77471 0.975102C8.62779 1.11407 8.41816 1.31305 8.16671 1.55371C7.66416 2.03466 6.99285 2.68366 6.32045 3.35343C5.65031 4.02096 4.96965 4.71846 4.45286 5.2938C4.19614 5.5796 3.96649 5.84999 3.79643 6.07918C3.71233 6.19251 3.6295 6.31347 3.56396 6.43252C3.51907 6.51405 3.40011 6.73349 3.40011 7C3.40011 7.2665 3.51907 7.48595 3.56396 7.56748C3.6295 7.68653 3.71233 7.80749 3.79643 7.92082C3.96649 8.15001 4.19614 8.4204 4.45286 8.7062C4.96965 9.28154 5.65031 9.97904 6.32045 10.6466C6.99285 11.3163 7.66417 11.9653 8.16671 12.4463C8.41816 12.6869 8.62779 12.8859 8.77471 13.0249L8.94554 13.1861L9.00567 13.2427L9.00671 13.2436C9.00677 13.2437 9.00681 13.2437 9.66677 12.625C10.3267 12.0063 10.3267 12.0063 10.3267 12.0063L10.2682 11.9513L10.1005 11.793C9.95575 11.6561 9.74872 11.4595 9.50018 11.2217C9.00272 10.7456 8.3407 10.1055 7.67976 9.44718C7.01657 8.78658 6.36389 8.1169 5.88069 7.57896C5.67428 7.34917 5.50837 7.15397 5.38856 7C5.50837 6.84602 5.67428 6.65083 5.88069 6.42104C6.36389 5.8831 7.01657 5.21342 7.67976 4.55282C8.3407 3.89446 9.00272 3.25441 9.50017 2.77832C9.74872 2.54046 9.95575 2.34394 10.1005 2.20703L10.2682 2.04874L10.3259 1.99448C10.3259 1.99446 10.3267 1.99372 9.96673 1.65621L10.3259 1.99448C10.6904 1.65277 10.6912 1.09799 10.3267 0.756282ZM5.22271 7.23514C5.21312 7.25766 5.2097 7.25877 5.22271 7.23514C5.22288 7.23484 5.22254 7.23545 5.22271 7.23514ZM10.3267 13.2437C10.6912 12.902 10.6912 12.348 10.3267 12.0063L9.66677 12.625L9.00671 13.2436C9.3712 13.5853 9.96225 13.5854 10.3267 13.2437Z" />
    </symbol>

    <symbol id="emoji" viewBox="0 0 16 16" xmlns="http://www.w3.org/2000/svg">
        <path d="M7.9799 14.6673C11.6618 14.6673 14.6466 11.6825 14.6466 8.00065C14.6466 4.31875 11.6618 1.33398 7.9799 1.33398C4.298 1.33398 1.31323 4.31875 1.31323 8.00065C1.31323 11.6825 4.298 14.6673 7.9799 14.6673Z" fill="none" stroke-linecap="round" stroke-linejoin="round"/>
        <path d="M4.80664 10.666C5.50664 11.6727 6.67997 12.3327 7.99997 12.3327C9.31997 12.3327 10.4866 11.6727 11.1933 10.666" fill="none" stroke-linecap="round" stroke-linejoin="round"/>
        <circle cx="5.33341" cy="7.33268" r="0.666667" stroke="none" />
        <circle cx="10.6667" cy="7.33268" r="0.666667" stroke="none" />
    </symbol>

    <symbol id="notification" viewBox="0 0 18 19" fill="none" xmlns="http://www.w3.org/2000/svg">
        <path d="M4.5 6.5C4.5 5.30653 4.97411 4.16193 5.81802 3.31802C6.66193 2.47411 7.80653 2 9 2C10.1935 2 11.3381 2.47411 12.182 3.31802C13.0259 4.16193 13.5 5.30653 13.5 6.5C13.5 11.75 15.75 13.25 15.75 13.25H2.25C2.25 13.25 4.5 11.75 4.5 6.5Z" stroke-width="1.5" stroke-linecap="round" stroke-linejoin="round"/>
        <path d="M7.72559 16.25C7.85112 16.4783 8.03567 16.6688 8.25995 16.8014C8.48424 16.934 8.74002 17.004 9.00059 17.004C9.26115 17.004 9.51694 16.934 9.74122 16.8014C9.9655 16.6688 10.15 16.4783 10.2756 16.25" stroke-width="1.5" stroke-linecap="round" stroke-linejoin="round"/>
        <path d="M3 2C2.1 3.275 1.5 4.775 1.5 6.5" stroke-width="1.5" stroke-linecap="round" stroke-linejoin="round"/>
        <path d="M16.5 6.5C16.5 4.775 15.9 3.275 15 2" stroke-width="1.5" stroke-linecap="round" stroke-linejoin="round"/>
    </symbol>



    <!-- Others -->

    <symbol id="plus" viewBox="0 0 12 12" fill="none" xmlns="http://www.w3.org/2000/svg">
        <path d="M10.2426 6.00045H1.75736M6 1.75781V10.2431" stroke-width="2" stroke-linecap="round" stroke-linejoin="round"/>
    </symbol>

    <symbol id="people" viewBox="0 0 18 18" fill="none" xmlns="http://www.w3.org/2000/svg">
        <path d="M13.5001 5.37C13.4551 5.3625 13.4026 5.3625 13.3576 5.37C12.3226 5.3325 11.4976 4.485 11.4976 3.435C11.4976 2.3625 12.3601 1.5 13.4326 1.5C14.5051 1.5 15.3676 2.37 15.3676 3.435C15.3601 4.485 14.5351 5.3325 13.5001 5.37Z" stroke-width="1.5" stroke-linecap="round" stroke-linejoin="round"/>
        <path d="M12.7276 10.8301C13.7551 11.0026 14.8876 10.8226 15.6826 10.2901C16.7401 9.58512 16.7401 8.43012 15.6826 7.72512C14.8801 7.19262 13.7326 7.01262 12.7051 7.19262" stroke-width="1.5" stroke-linecap="round" stroke-linejoin="round"/>
        <path d="M4.47736 5.37C4.52236 5.3625 4.57486 5.3625 4.61986 5.37C5.65486 5.3325 6.47986 4.485 6.47986 3.435C6.47986 2.3625 5.61736 1.5 4.54486 1.5C3.47236 1.5 2.60986 2.37 2.60986 3.435C2.61736 4.485 3.44236 5.3325 4.47736 5.37Z" stroke-width="1.5" stroke-linecap="round" stroke-linejoin="round"/>
        <path d="M5.25008 10.8301C4.22258 11.0026 3.09008 10.8226 2.29508 10.2901C1.23758 9.58512 1.23758 8.43012 2.29508 7.72512C3.09758 7.19262 4.24508 7.01262 5.27258 7.19262" stroke-width="1.5" stroke-linecap="round" stroke-linejoin="round"/>
        <path d="M9.00006 10.9725C8.95506 10.965 8.90256 10.965 8.85756 10.9725C7.82256 10.935 6.99756 10.0875 6.99756 9.03754C6.99756 7.96504 7.86006 7.10254 8.93256 7.10254C10.0051 7.10254 10.8676 7.97254 10.8676 9.03754C10.8601 10.0875 10.0351 10.9425 9.00006 10.9725Z" stroke-width="1.5" stroke-linecap="round" stroke-linejoin="round"/>
        <path d="M6.81754 13.3355C5.76004 14.0405 5.76004 15.1955 6.81754 15.9005C8.01754 16.703 9.98254 16.703 11.1825 15.9005C12.24 15.1955 12.24 14.0405 11.1825 13.3355C9.99004 12.5405 8.01754 12.5405 6.81754 13.3355Z" stroke-width="1.5" stroke-linecap="round" stroke-linejoin="round"/>
    </symbol>

    <symbol id="mirroring" viewBox="0 0 18 18" fill="none" xmlns="http://www.w3.org/2000/svg">
        <path d="M1.5 6.75V6C1.5 3.75 3 2.25 5.25 2.25H12.75C15 2.25 16.5 3.75 16.5 6V12C16.5 14.25 15 15.75 12.75 15.75H12" stroke-width="1.5" stroke-linecap="round" stroke-linejoin="round"/>
        <path d="M2.76758 8.78223C6.23258 9.22473 8.77508 11.7747 9.22508 15.2397" stroke-width="1.5" stroke-linecap="round" stroke-linejoin="round"/>
        <path d="M1.96484 11.3018C4.50734 11.6243 6.37485 13.4993 6.70485 16.0418" stroke-width="1.5" stroke-linecap="round" stroke-linejoin="round"/>
        <path d="M1.48486 14.1445C2.75236 14.3095 3.68987 15.2395 3.85487 16.5145" stroke-width="1.5" stroke-linecap="round" stroke-linejoin="round"/>
    </symbol>

    <symbol id="activity" viewBox="0 0 18 18" fill="none" xmlns="http://www.w3.org/2000/svg">
        <path d="M6.75 16.5H11.25C15 16.5 16.5 15 16.5 11.25V6.75C16.5 3 15 1.5 11.25 1.5H6.75C3 1.5 1.5 3 1.5 6.75V11.25C1.5 15 3 16.5 6.75 16.5Z" stroke-width="1.5" stroke-linecap="round" stroke-linejoin="round"/>
        <path d="M5.49756 10.8678L7.28256 8.55031C7.53756 8.22031 8.01006 8.16031 8.34006 8.41531L9.71256 9.49531C10.0426 9.75031 10.5151 9.69031 10.7701 9.36781L12.5026 7.13281" stroke-width="1.5" stroke-linecap="round" stroke-linejoin="round"/>
    </symbol>

    <symbol id="gps" viewBox="0 0 18 18" fill="none" xmlns="http://www.w3.org/2000/svg">
        <path d="M9 14.625C12.1066 14.625 14.625 12.1066 14.625 9C14.625 5.8934 12.1066 3.375 9 3.375C5.8934 3.375 3.375 5.8934 3.375 9C3.375 12.1066 5.8934 14.625 9 14.625Z" stroke-width="1.5" stroke-linecap="round" stroke-linejoin="round"/>
        <path d="M9 11.25C10.2426 11.25 11.25 10.2426 11.25 9C11.25 7.75736 10.2426 6.75 9 6.75C7.75736 6.75 6.75 7.75736 6.75 9C6.75 10.2426 7.75736 11.25 9 11.25Z" stroke-width="1.5" stroke-linecap="round" stroke-linejoin="round"/>
        <path d="M9 3V1.5" stroke-width="1.5" stroke-linecap="round" stroke-linejoin="round"/>
        <path d="M3 9H1.5" stroke-width="1.5" stroke-linecap="round" stroke-linejoin="round"/>
        <path d="M9 15V16.5" stroke-width="1.5" stroke-linecap="round" stroke-linejoin="round"/>
        <path d="M15 9H16.5" stroke-width="1.5" stroke-linecap="round" stroke-linejoin="round"/>
    </symbol>

    <symbol id="like-block" viewBox="0 0 18 18" fill="none" xmlns="http://www.w3.org/2000/svg">
        <path d="M13.5 14.1453H12.93C12.33 14.1453 11.76 14.3778 11.34 14.7978L10.0575 16.0653C9.4725 16.6428 8.51999 16.6428 7.93499 16.0653L6.6525 14.7978C6.2325 14.3778 5.655 14.1453 5.0625 14.1453H4.5C3.255 14.1453 2.25 13.1478 2.25 11.9178V3.73529C2.25 2.50529 3.255 1.50781 4.5 1.50781H13.5C14.745 1.50781 15.75 2.50529 15.75 3.73529V11.9178C15.75 13.1403 14.745 14.1453 13.5 14.1453Z" stroke-width="1.5" stroke-miterlimit="10" stroke-linecap="round" stroke-linejoin="round"/>
        <path d="M9.21 11.22C9.0975 11.2575 8.91 11.2575 8.79 11.22C7.815 10.8825 5.625 9.49501 5.625 7.13251C5.625 6.09001 6.465 5.25 7.5 5.25C8.115 5.25 8.655 5.5425 9 6C9.345 5.5425 9.885 5.25 10.5 5.25C11.535 5.25 12.375 6.09001 12.375 7.13251C12.3675 9.49501 10.185 10.8825 9.21 11.22Z" stroke-width="1.5" stroke-linecap="round" stroke-linejoin="round"/>
    </symbol>

    <symbol id="clock" viewBox="0 0 18 18" fill="none" xmlns="http://www.w3.org/2000/svg">
        <path d="M16.5 9C16.5 13.14 13.14 16.5 9 16.5C4.86 16.5 1.5 13.14 1.5 9C1.5 4.86 4.86 1.5 9 1.5C13.14 1.5 16.5 4.86 16.5 9Z" stroke-width="1.5" stroke-linecap="round" stroke-linejoin="round"/>
        <path d="M11.7827 11.3853L9.45766 9.99781C9.05266 9.75781 8.72266 9.18031 8.72266 8.70781V5.63281" stroke-width="1.5" stroke-linecap="round" stroke-linejoin="round"/>
    </symbol>

    <symbol id="award" viewBox="0 0 18 18" fill="none" xmlns="http://www.w3.org/2000/svg">
        <path d="M3.19482 8.26508V11.9926C3.19482 13.3576 3.19482 13.3576 4.48482 14.2276L8.03232 16.2751C8.56482 16.5826 9.43482 16.5826 9.96732 16.2751L13.5148 14.2276C14.8048 13.3576 14.8048 13.3576 14.8048 11.9926V8.26508C14.8048 6.90008 14.8048 6.90008 13.5148 6.03008L9.96732 3.98258C9.43482 3.67508 8.56482 3.67508 8.03232 3.98258L4.48482 6.03008C3.19482 6.90008 3.19482 6.90008 3.19482 8.26508Z" stroke-width="1.5" stroke-linecap="round" stroke-linejoin="round"/>
        <path d="M13.125 5.7225V3.75C13.125 2.25 12.375 1.5 10.875 1.5H7.125C5.625 1.5 4.875 2.25 4.875 3.75V5.67" stroke-width="1.5" stroke-linecap="round" stroke-linejoin="round"/>
        <path d="M9.47234 8.24223L9.89983 8.90973C9.96733 9.01473 10.1173 9.11973 10.2298 9.14973L10.9948 9.34473C11.4673 9.46473 11.5948 9.86973 11.2873 10.2447L10.7848 10.8522C10.7098 10.9497 10.6498 11.1222 10.6573 11.2422L10.7023 12.0297C10.7323 12.5172 10.3873 12.7647 9.93734 12.5847L9.20234 12.2922C9.08984 12.2472 8.90234 12.2472 8.78984 12.2922L8.05484 12.5847C7.60484 12.7647 7.25984 12.5097 7.28984 12.0297L7.33484 11.2422C7.34234 11.1222 7.28233 10.9422 7.20733 10.8522L6.70483 10.2447C6.39733 9.86973 6.52484 9.46473 6.99734 9.34473L7.76234 9.14973C7.88234 9.11973 8.03234 9.00723 8.09234 8.90973L8.51984 8.24223C8.78984 7.83723 9.20984 7.83723 9.47234 8.24223Z" stroke-width="1.5" stroke-linecap="round" stroke-linejoin="round"/>
    </symbol>

    <!-- Socials -->

    <symbol id="social:telegram" viewBox="0 0 17 17" stroke="none" xmlns="http://www.w3.org/2000/svg">
        <g clip-path="url(#clip0_1028_11962)">
            <path d="M15.5038 2.22728L1.32859 7.72186C0.758156 7.97772 0.565216 8.49015 1.19069 8.76824L4.82728 9.92988L13.62 4.46771C14.1001 4.12479 14.5916 4.21624 14.1687 4.59344L6.6169 11.4664L6.37967 14.375C6.5994 14.8242 7.00172 14.8262 7.25833 14.603L9.34765 12.6159L12.9259 15.3092C13.757 15.8038 14.2092 15.4846 14.388 14.5781L16.7351 3.40722C16.9788 2.29141 16.5632 1.79978 15.5038 2.22728Z" />
        </g>
        <defs>
            <clipPath id="clip0_1028_11962">
                <rect width="16" height="16" fill="white" transform="translate(0.802734 0.808594)"/>
            </clipPath>
        </defs>
    </symbol>

    <symbol id="social:instagram" viewBox="0 0 16 17" stroke="none" xmlns="http://www.w3.org/2000/svg">
        <path d="M8.00584 1.87116C10.1419 1.87116 10.3949 1.87929 11.2385 1.91778C12.0185 1.95337 12.4421 2.0837 12.724 2.19323C13.0974 2.33835 13.3639 2.51174 13.6439 2.79167C13.9238 3.0716 14.0972 3.33813 14.2423 3.71152C14.3518 3.99345 14.4822 4.41704 14.5178 5.197C14.5563 6.0406 14.5644 6.2936 14.5644 8.4297C14.5644 10.5658 14.5563 10.8188 14.5178 11.6624C14.4822 12.4424 14.3518 12.866 14.2423 13.1479C14.0972 13.5213 13.9238 13.7878 13.6439 14.0677C13.3639 14.3477 13.0974 14.5211 12.724 14.6661C12.4421 14.7757 12.0185 14.906 11.2385 14.9416C10.3951 14.9801 10.1421 14.9882 8.00584 14.9882C5.86961 14.9882 5.61661 14.9801 4.77317 14.9416C3.99318 14.906 3.56959 14.7757 3.28769 14.6661C2.91427 14.5211 2.64774 14.3477 2.36781 14.0677C2.08788 13.7878 1.91449 13.5213 1.7694 13.1479C1.65984 12.866 1.52951 12.4424 1.49392 11.6624C1.45543 10.8188 1.4473 10.5658 1.4473 8.4297C1.4473 6.2936 1.45543 6.0406 1.49392 5.19703C1.52951 4.41704 1.65984 3.99345 1.7694 3.71152C1.91449 3.33813 2.08788 3.0716 2.36781 2.79167C2.64774 2.51174 2.91427 2.33835 3.28769 2.19323C3.56959 2.0837 3.99318 1.95337 4.77314 1.91778C5.61674 1.87929 5.86974 1.87116 8.00584 1.87116ZM8.00584 0.429688C5.83316 0.429688 5.56075 0.438897 4.70747 0.47783C3.85593 0.516699 3.27441 0.651916 2.76552 0.849693C2.23945 1.05414 1.79331 1.32768 1.34857 1.77243C0.903825 2.21717 0.630279 2.66331 0.425833 3.18938C0.228056 3.69827 0.0928392 4.27979 0.0539698 5.13133C0.0150369 5.98458 0.00585938 6.25702 0.00585938 8.4297C0.00585938 10.6024 0.0150369 10.8748 0.0539698 11.7281C0.0928392 12.5796 0.228056 13.1611 0.425833 13.67C0.630279 14.1961 0.903825 14.6422 1.34857 15.087C1.79331 15.5317 2.23945 15.8053 2.76552 16.0097C3.27441 16.2075 3.85593 16.3427 4.70747 16.3816C5.56075 16.4205 5.83316 16.4297 8.00584 16.4297C10.1785 16.4297 10.451 16.4205 11.3042 16.3816C12.1558 16.3427 12.7373 16.2075 13.2462 16.0097C13.7722 15.8053 14.2184 15.5317 14.6631 15.087C15.1079 14.6422 15.3814 14.1961 15.5859 13.67C15.7836 13.1611 15.9188 12.5796 15.9577 11.7281C15.9966 10.8748 16.0059 10.6024 16.0059 8.4297C16.0059 6.25702 15.9966 5.98458 15.9577 5.13133C15.9188 4.27979 15.7836 3.69827 15.5859 3.18938C15.3814 2.66331 15.1079 2.21717 14.6631 1.77243C14.2184 1.32768 13.7722 1.05414 13.2462 0.849693C12.7373 0.651916 12.1558 0.516699 11.3042 0.47783C10.451 0.438897 10.1785 0.429688 8.00584 0.429688ZM8.00584 4.32158C5.737 4.32158 3.89772 6.16086 3.89772 8.4297C3.89772 10.6985 5.737 12.5378 8.00584 12.5378C10.2747 12.5378 12.114 10.6985 12.114 8.4297C12.114 6.16086 10.2747 4.32158 8.00584 4.32158ZM8.00584 11.0964C6.53309 11.0964 5.33916 9.90245 5.33916 8.4297C5.33916 6.95695 6.53309 5.76302 8.00584 5.76302C9.47859 5.76302 10.6725 6.95695 10.6725 8.4297C10.6725 9.90245 9.47859 11.0964 8.00584 11.0964ZM13.2363 4.15928C13.2363 4.68948 12.8065 5.11929 12.2763 5.11929C11.7461 5.11929 11.3163 4.68948 11.3163 4.15928C11.3163 3.62908 11.7461 3.19929 12.2763 3.19929C12.8065 3.19929 13.2363 3.62908 13.2363 4.15928Z" />
    </symbol>


</svg>