<svg width="45" height="21" viewBox="0 0 45 21" fill="none" xmlns="http://www.w3.org/2000/svg">
<rect y="0.5" width="44.6956" height="20" rx="10" fill="#FFEEE7"/>
<path d="M11.42 7.51039V14.2104H10.14V7.51039H11.42ZM8 8.08039V6.90039H13.56V8.08039H8Z" fill="#FF8E8E"/>
<path d="M13.2286 11.7304C13.2286 11.2171 13.3419 10.7671 13.5686 10.3804C13.7953 9.98706 14.1086 9.68039 14.5086 9.46039C14.9086 9.24039 15.3619 9.13039 15.8686 9.13039C16.3819 9.13039 16.8353 9.24039 17.2286 9.46039C17.6286 9.68039 17.9419 9.98706 18.1686 10.3804C18.3953 10.7671 18.5086 11.2171 18.5086 11.7304C18.5086 12.2437 18.3953 12.6971 18.1686 13.0904C17.9419 13.4771 17.6286 13.7804 17.2286 14.0004C16.8353 14.2204 16.3819 14.3304 15.8686 14.3304C15.3619 14.3304 14.9086 14.2204 14.5086 14.0004C14.1086 13.7804 13.7953 13.4771 13.5686 13.0904C13.3419 12.6971 13.2286 12.2437 13.2286 11.7304ZM14.4486 11.7304C14.4486 12.0304 14.5086 12.2937 14.6286 12.5204C14.7553 12.7471 14.9219 12.9237 15.1286 13.0504C15.3419 13.1771 15.5886 13.2404 15.8686 13.2404C16.1486 13.2404 16.3953 13.1771 16.6086 13.0504C16.8219 12.9237 16.9886 12.7471 17.1086 12.5204C17.2286 12.2937 17.2886 12.0304 17.2886 11.7304C17.2886 11.4237 17.2286 11.1604 17.1086 10.9404C16.9886 10.7137 16.8219 10.5371 16.6086 10.4104C16.3953 10.2837 16.1486 10.2204 15.8686 10.2204C15.5886 10.2204 15.3419 10.2837 15.1286 10.4104C14.9219 10.5371 14.7553 10.7137 14.6286 10.9404C14.5086 11.1604 14.4486 11.4237 14.4486 11.7304Z" fill="#FF8E8E"/>
<path d="M19.4756 16.5004V9.27039H20.6056L20.6856 10.0204C20.8323 9.73372 21.059 9.51372 21.3656 9.36039C21.6723 9.20039 22.009 9.12039 22.3756 9.12039C22.849 9.12039 23.2556 9.22706 23.5956 9.44039C23.9423 9.65372 24.2123 9.95039 24.4056 10.3304C24.599 10.7104 24.6956 11.1604 24.6956 11.6804C24.6956 12.1937 24.6056 12.6504 24.4256 13.0504C24.2456 13.4504 23.9823 13.7671 23.6356 14.0004C23.2956 14.2271 22.879 14.3404 22.3856 14.3404C22.019 14.3404 21.6823 14.2704 21.3756 14.1304C21.0756 13.9904 20.849 13.7971 20.6956 13.5504V16.5004H19.4756ZM20.7056 11.7404C20.7056 12.0337 20.7623 12.2937 20.8756 12.5204C20.989 12.7471 21.149 12.9271 21.3556 13.0604C21.569 13.1871 21.8156 13.2504 22.0956 13.2504C22.3823 13.2504 22.629 13.1871 22.8356 13.0604C23.0423 12.9271 23.199 12.7471 23.3056 12.5204C23.4123 12.2937 23.4656 12.0337 23.4656 11.7404C23.4656 11.4471 23.4123 11.1871 23.3056 10.9604C23.199 10.7337 23.0423 10.5571 22.8356 10.4304C22.629 10.2971 22.3823 10.2304 22.0956 10.2304C21.8156 10.2304 21.569 10.2937 21.3556 10.4204C21.149 10.5471 20.989 10.7237 20.8756 10.9504C20.7623 11.1771 20.7056 11.4404 20.7056 11.7404Z" fill="#FF8E8E"/>
<g clip-path="url(#clip0_523_2812)">
<path d="M30.9458 11.75C31.2773 11.75 31.5953 11.6183 31.8297 11.3839C32.0641 11.1495 32.1958 10.8315 32.1958 10.5C32.1958 9.81 31.9458 9.5 31.6958 9C31.1598 7.9285 31.5838 6.973 32.6958 6C32.9458 7.25 33.6958 8.45 34.6958 9.25C35.6958 10.05 36.1958 11 36.1958 12C36.1958 12.4596 36.1053 12.9148 35.9294 13.3394C35.7535 13.764 35.4957 14.1499 35.1707 14.4749C34.8457 14.7999 34.4598 15.0577 34.0352 15.2336C33.6106 15.4095 33.1554 15.5 32.6958 15.5C32.2362 15.5 31.781 15.4095 31.3564 15.2336C30.9318 15.0577 30.5459 14.7999 30.2209 14.4749C29.8959 14.1499 29.6381 13.764 29.4622 13.3394C29.2863 12.9148 29.1958 12.4596 29.1958 12C29.1958 11.4235 29.4123 10.853 29.6958 10.5C29.6958 10.8315 29.8275 11.1495 30.0619 11.3839C30.2963 11.6183 30.6143 11.75 30.9458 11.75Z" stroke="#FF8E8E" stroke-width="2" stroke-linecap="round" stroke-linejoin="round"/>
</g>
<defs>
<clipPath id="clip0_523_2812">
<rect width="12" height="12" fill="white" transform="translate(26.6958 4.5)"/>
</clipPath>
</defs>
</svg>
