<svg width="18" height="19" viewBox="0 0 18 19" fill="none" xmlns="http://www.w3.org/2000/svg">
<path d="M15.001 10.2523C15.001 14.0023 12.376 15.8773 9.25598 16.9648C9.0926 17.0202 8.91513 17.0175 8.75348 16.9573C5.62598 15.8773 3.00098 14.0023 3.00098 10.2523V5.00229C3.00098 4.80338 3.07999 4.61261 3.22065 4.47196C3.3613 4.33131 3.55206 4.25229 3.75098 4.25229C5.25098 4.25229 7.12598 3.35229 8.43098 2.21229C8.58987 2.07654 8.79199 2.00195 9.00098 2.00195C9.20996 2.00195 9.41209 2.07654 9.57098 2.21229C10.8835 3.35979 12.751 4.25229 14.251 4.25229C14.4499 4.25229 14.6407 4.33131 14.7813 4.47196C14.922 4.61261 15.001 4.80338 15.001 5.00229V10.2523Z" stroke="#4790FF" stroke-linecap="round" stroke-linejoin="round"/>
<path d="M6.75 9.49805L8.25 10.998L11.25 7.99805" stroke="#4790FF" stroke-linecap="round" stroke-linejoin="round"/>
</svg>
